<?xml version="1.0" encoding="UTF-8"?>
<svg width="130px" height="95px" viewBox="0 0 130 95" version="1.1" xmlns="http://www.w3.org/2000/svg" xmlns:xlink="http://www.w3.org/1999/xlink">
    <!-- Generator: Sketch 60.1 (88133) - https://sketch.com -->
    <title>Artboard Copy 102</title>
    <desc>Created with Sketch.</desc>
    <g id="Artboard-Copy-102" stroke="none" stroke-width="1" fill="none" fill-rule="evenodd">
        <g id="logo-2" transform="translate(8.000000, 36.000000)" fill-rule="nonzero">
            <g id="logo">
                <path d="M110.10652,5.34416666 C108.49744,5.34416666 107.45416,5.93175 106.82028,6.83466666 C106.18548,5.88591666 105.1882,5.34416666 103.85052,5.34416666 C102.33252,5.34416666 101.33524,5.93175 100.8136,6.699 L100.8136,5.66041666 L97.4142,5.66041666 L97.4142,16.9519166 L100.8136,16.9519166 L100.8136,10.5838334 C100.8136,9.251 101.4484,8.46083336 102.58184,8.46083336 C103.66928,8.46083336 104.21392,9.18316664 104.21392,10.3125 L104.21392,16.9519166 L107.61332,16.9519166 L107.61332,10.5838334 C107.61332,9.251 108.24812,8.46083336 109.38156,8.46083336 C110.469,8.46083336 111.01272,9.18316664 111.01272,10.3125 L111.01272,16.9519166 L114.41304,16.9519166 L114.41304,10.0191666 C114.41304,7.19583336 112.71288,5.34416666 110.10652,5.34416666" id="Fill-8" fill="#000000"></path>
                <path d="M90.38816,13.9709166 C88.91432,13.9709166 87.78088,12.9094166 87.78088,11.3061666 C87.78088,9.70291664 88.91432,8.64141664 90.38816,8.64141664 C91.86108,8.64141664 92.99452,9.70291664 92.99452,11.3061666 C92.99452,12.9094166 91.86108,13.9709166 90.38816,13.9709166 L90.38816,13.9709166 Z M90.38816,5.34416666 C87.05592,5.34416666 84.38148,7.94108336 84.38148,11.3061666 C84.38148,14.67125 87.05592,17.2681666 90.38816,17.2681666 C93.71948,17.2681666 96.39392,14.67125 96.39392,11.3061666 C96.39392,7.94108336 93.71948,5.34416666 90.38816,5.34416666 L90.38816,5.34416666 Z" id="Fill-9" fill="#000000"></path>
                <path d="M79.55332,13.926 C78.0804,13.926 76.99296,12.8645 76.99296,11.3061666 C76.99296,9.74783336 78.0804,8.68633336 79.55332,8.68633336 C80.5506,8.68633336 81.36664,9.16116664 81.75212,9.95133336 L84.72188,8.23441664 C83.74668,6.4955 81.7972,5.34416666 79.59932,5.34416666 C76.15392,5.34416666 73.59264,7.94108336 73.59264,11.3061666 C73.59264,14.67125 76.15392,17.2681666 79.59932,17.2681666 C81.8202,17.2681666 83.74668,16.1159166 84.72188,14.355 L81.75212,12.661 C81.38964,13.4511666 80.5506,13.926 79.55332,13.926" id="Fill-10" fill="#000000"></path>
                <path d="M56.95628,14.0616666 C55.39228,14.0616666 54.25884,13.0001666 54.25884,11.3061666 C54.25884,9.61216664 55.39228,8.55066664 56.95628,8.55066664 C58.52028,8.55066664 59.65372,9.61216664 59.65372,11.3061666 C59.65372,13.0001666 58.52028,14.0616666 56.95628,14.0616666 L56.95628,14.0616666 Z M59.65372,6.72191666 C58.90576,5.86391666 57.79532,5.34416666 56.2764,5.34416666 C53.30756,5.34416666 50.85944,7.94108336 50.85944,11.3061666 C50.85944,14.67125 53.30756,17.2681666 56.2764,17.2681666 C57.79532,17.2681666 58.90576,16.7484166 59.65372,15.8904166 L59.65372,16.9519166 L63.05312,16.9519166 L63.05312,5.66041666 L59.65372,5.66041666 L59.65372,6.72191666 L59.65372,6.72191666 Z" id="Fill-11" fill="#000000"></path>
                <path d="M48.29816,2.49883334 L44.89876,3.5145 L44.89876,5.66041666 L43.08544,5.66041666 L43.08544,8.91275 L44.89876,8.91275 L44.89876,12.9094166 C44.89876,16.071 46.19044,17.4038334 50.63312,16.9519166 L50.63312,13.8810834 C49.1372,13.9709166 48.29816,13.8810834 48.29816,12.9094166 L48.29816,8.91275 L50.63312,8.91275 L50.63312,5.66041666 L48.29816,5.66041666 L48.29816,2.49883334" id="Fill-12" fill="#000000"></path>
                <polygon id="Fill-13" fill="#000000" points="38.74304 16.9519166 42.14244 16.9519166 42.14244 5.66041666 38.74304 5.66041666"></polygon>
                <polyline id="Fill-14" fill="#000000" points="64.64012 16.9519166 68.03952 16.9519166 68.03952 0.616 64.64012 1.64816666 64.64012 16.9519166"></polyline>
                <path d="M31.62684,14.06075 C30.06192,14.06075 28.92756,12.99925 28.92756,11.3070834 C28.92756,9.61125 30.06192,8.5525 31.62684,8.5525 C33.189,8.5525 34.32336,9.61125 34.32336,11.3070834 C34.32336,12.99925 33.189,14.06075 31.62684,14.06075 L31.62684,14.06075 Z M32.30672,5.34508334 C30.78688,5.34508334 29.67644,5.863 28.92756,6.721 L28.92756,5.66133334 L25.52816,5.66133334 L25.52816,21.46925 L28.92756,21.46925 L28.92756,15.8895 C29.67644,16.7475 30.78688,17.2681666 32.30672,17.2681666 C35.27648,17.2681666 37.72276,14.6703334 37.72276,11.3070834 C37.72276,7.94016664 35.27648,5.34508334 32.30672,5.34508334 L32.30672,5.34508334 Z" id="Fill-15" fill="#000000"></path>
                <path d="M17.84524,14.0616666 C16.28216,14.0616666 15.14872,13.0001666 15.14872,11.3061666 C15.14872,9.61216664 16.28216,8.55066664 17.84524,8.55066664 C19.40924,8.55066664 20.54268,9.61216664 20.54268,11.3061666 C20.54268,13.0001666 19.40924,14.0616666 17.84524,14.0616666 L17.84524,14.0616666 Z M20.54268,6.72191666 C19.79472,5.86391666 18.68428,5.34416666 17.16536,5.34416666 C14.19652,5.34416666 11.7484,7.94108336 11.7484,11.3061666 C11.7484,14.67125 14.19652,17.2681666 17.16536,17.2681666 C18.68428,17.2681666 19.79472,16.7484166 20.54268,15.8904166 L20.54268,16.9519166 L23.943,16.9519166 L23.943,5.66041666 L20.54268,5.66041666 L20.54268,6.72191666 L20.54268,6.72191666 Z" id="Fill-16" fill="#000000"></path>
                <path d="M6.39584,8.68633336 C7.39312,8.68633336 8.20916,9.16116664 8.59464,9.95133336 L11.56348,8.23441664 C10.5892,6.4955 8.63972,5.34416666 6.44092,5.34416666 C2.99644,5.34416666 0.43516,7.94108336 0.43516,11.3061666 C0.43516,14.67125 2.99644,17.2681666 6.44092,17.2681666 C8.66272,17.2681666 10.5892,16.1159166 11.56348,14.355 L8.59464,12.661 C8.23216,13.4511666 7.39312,13.926 6.39584,13.926 C4.92292,13.926 3.83456,12.8645 3.83456,11.3061666 C3.83456,9.74783336 4.92292,8.68633336 6.39584,8.68633336" id="Fill-17" fill="#000000"></path>
                <path d="M71.03136,13.3384166 C72.1418,13.3384166 73.071,12.4125834 73.071,11.3061666 C73.071,10.19975 72.1418,9.27391664 71.03136,9.27391664 C69.92092,9.27391664 68.99172,10.19975 68.99172,11.3061666 C68.99172,12.4125834 69.92092,13.3384166 71.03136,13.3384166" id="Fill-18" fill="#C09C7C"></path>
                <path d="M40.48368,4.81891666 C41.59412,4.81891666 42.52332,3.89216666 42.52332,2.78575 C42.52332,1.67933334 41.59412,0.7535 40.48368,0.7535 C39.37324,0.7535 38.44404,1.67933334 38.44404,2.78575 C38.44404,3.89216666 39.37324,4.81891666 40.48368,4.81891666" id="Fill-19" fill="#000000"></path>
            </g>
        </g>
    </g>
</svg>
