<?xml version="1.0" encoding="UTF-8"?>
<svg width="16px" height="16px" viewBox="0 0 16 16" version="1.1" xmlns="http://www.w3.org/2000/svg" xmlns:xlink="http://www.w3.org/1999/xlink">
    <!-- Generator: sketchtool 60.1 (101010) - https://sketch.com -->
    <title>F9EDFBAC-0549-4F00-8CC0-4F605BF4DB70</title>
    <desc>Created with sketchtool.</desc>
    <g id="Page-1" stroke="none" stroke-width="1" fill="none" fill-rule="evenodd">
        <g id="Landing-Page---Mobile-V" transform="translate(-23.000000, -85.000000)" fill="#FFFFFF" fill-rule="nonzero">
            <g id="Group-7" transform="translate(0.000000, 78.000000)">
                <g id="tick-mark-2" transform="translate(23.000000, 7.000000)">
                    <g id="tick-mark">
                        <path d="M8,0 C3.58866667,0 0,3.58866667 0,8 C0,12.4113333 3.58866667,16 8,16 C12.4113333,16 16,12.4113333 16,8 C16,3.58866667 12.4113333,0 8,0 Z M12.0546667,6.30466667 L7.72133333,10.638 C7.59133333,10.768 7.42066667,10.8333333 7.25,10.8333333 C7.07933333,10.8333333 6.90866667,10.768 6.77866667,10.638 L4.612,8.47133333 C4.35133333,8.21066667 4.35133333,7.78933333 4.612,7.52866667 C4.87266667,7.268 5.294,7.268 5.55466667,7.52866667 L7.25,9.224 L11.112,5.362 C11.3726667,5.10133333 11.794,5.10133333 12.0546667,5.362 C12.3153333,5.62266667 12.3153333,6.044 12.0546667,6.30466667 L12.0546667,6.30466667 Z" id="Shape"></path>
                    </g>
                </g>
            </g>
        </g>
    </g>
</svg>