<?xml version="1.0" encoding="UTF-8"?>
<svg width="195px" height="54px" viewBox="0 0 195 54" version="1.1" xmlns="http://www.w3.org/2000/svg" xmlns:xlink="http://www.w3.org/1999/xlink">
    <!-- Generator: sketchtool 60.1 (101010) - https://sketch.com -->
    <title>EC9A57D3-0ED7-4B1D-AC25-6CAA9A29F3F5</title>
    <desc>Created with sketchtool.</desc>
    <defs>
        <rect id="path-1" x="0" y="0" width="38" height="38" rx="7"></rect>
        <filter x="-32.9%" y="-30.3%" width="165.8%" height="165.8%" filterUnits="objectBoundingBox" id="filter-2">
            <feOffset dx="0" dy="1" in="SourceAlpha" result="shadowOffsetOuter1"></feOffset>
            <feGaussianBlur stdDeviation="4" in="shadowOffsetOuter1" result="shadowBlurOuter1"></feGaussianBlur>
            <feColorMatrix values="0 0 0 0 0.715551404   0 0 0 0 0.715551404   0 0 0 0 0.715551404  0 0 0 0.7 0" type="matrix" in="shadowBlurOuter1"></feColorMatrix>
        </filter>
    </defs>
    <g id="Page-1" stroke="none" stroke-width="1" fill="none" fill-rule="evenodd">
        <g id="Landing-Page" transform="translate(-111.000000, -6.000000)">
            <g id="Group-9">
                <g id="Group-5" transform="translate(119.000000, 13.000000)">
                    <path d="M50.025,16 L50.025,6.73 L53.445,6.73 L53.445,5.38 L45.165,5.38 L45.165,6.73 L48.585,6.73 L48.585,16 L50.025,16 Z M59.85,16.27 C60.66,16.27 61.405,16.1275 62.085,15.8425 C62.765,15.5575 63.3475,15.165 63.8325,14.665 C64.3175,14.165 64.6975,13.575 64.9725,12.895 C65.2475,12.215 65.385,11.48 65.385,10.69 C65.385,9.9 65.2475,9.165 64.9725,8.485 C64.6975,7.805 64.3175,7.215 63.8325,6.715 C63.3475,6.215 62.765,5.8225 62.085,5.5375 C61.405,5.2525 60.66,5.11 59.85,5.11 C59.04,5.11 58.295,5.2525 57.615,5.5375 C56.935,5.8225 56.3525,6.215 55.8675,6.715 C55.3825,7.215 55.0025,7.805 54.7275,8.485 C54.4525,9.165 54.315,9.9 54.315,10.69 C54.315,11.48 54.4525,12.215 54.7275,12.895 C55.0025,13.575 55.3825,14.165 55.8675,14.665 C56.3525,15.165 56.935,15.5575 57.615,15.8425 C58.295,16.1275 59.04,16.27 59.85,16.27 Z M59.85,14.92 C59.24,14.92 58.69,14.8075 58.2,14.5825 C57.71,14.3575 57.29,14.055 56.94,13.675 C56.59,13.295 56.32,12.8475 56.13,12.3325 C55.94,11.8175 55.845,11.27 55.845,10.69 C55.845,10.11 55.94,9.5625 56.13,9.0475 C56.32,8.5325 56.59,8.085 56.94,7.705 C57.29,7.325 57.71,7.0225 58.2,6.7975 C58.69,6.5725 59.24,6.46 59.85,6.46 C60.46,6.46 61.01,6.5725 61.5,6.7975 C61.99,7.0225 62.41,7.325 62.76,7.705 C63.11,8.085 63.38,8.5325 63.57,9.0475 C63.76,9.5625 63.855,10.11 63.855,10.69 C63.855,11.27 63.76,11.8175 63.57,12.3325 C63.38,12.8475 63.11,13.295 62.76,13.675 C62.41,14.055 61.99,14.3575 61.5,14.5825 C61.01,14.8075 60.46,14.92 59.85,14.92 Z M68.895,16 L68.895,11.32 L71.19,11.32 C71.87,11.32 72.43,11.2275 72.87,11.0425 C73.31,10.8575 73.6575,10.6225 73.9125,10.3375 C74.1675,10.0525 74.345,9.7325 74.445,9.3775 C74.545,9.0225 74.595,8.68 74.595,8.35 C74.595,8.02 74.545,7.6775 74.445,7.3225 C74.345,6.9675 74.1675,6.6475 73.9125,6.3625 C73.6575,6.0775 73.31,5.8425 72.87,5.6575 C72.43,5.4725 71.87,5.38 71.19,5.38 L71.19,5.38 L67.455,5.38 L67.455,16 L68.895,16 Z M70.785,10.06 L68.895,10.06 L68.895,6.64 L70.785,6.64 C71.065,6.64 71.3425,6.6625 71.6175,6.7075 C71.8925,6.7525 72.1375,6.835 72.3525,6.955 C72.5675,7.075 72.74,7.2475 72.87,7.4725 C73,7.6975 73.065,7.99 73.065,8.35 C73.065,8.71 73,9.0025 72.87,9.2275 C72.74,9.4525 72.5675,9.625 72.3525,9.745 C72.1375,9.865 71.8925,9.9475 71.6175,9.9925 C71.3425,10.0375 71.065,10.06 70.785,10.06 L70.785,10.06 Z M84.645,16 L84.645,5.38 L83.37,5.38 L80.415,7.825 L81.255,8.83 L83.205,7.03 L83.205,16 L84.645,16 Z M91.665,16.18 C92.415,16.18 93.0275,16 93.5025,15.64 C93.9775,15.28 94.35,14.825 94.62,14.275 C94.89,13.725 95.075,13.13 95.175,12.49 C95.275,11.85 95.325,11.25 95.325,10.69 C95.325,10.3 95.305,9.895 95.265,9.475 C95.225,9.055 95.1525,8.6425 95.0475,8.2375 C94.9425,7.8325 94.8025,7.445 94.6275,7.075 C94.4525,6.705 94.2275,6.3825 93.9525,6.1075 C93.6775,5.8325 93.3525,5.6125 92.9775,5.4475 C92.6025,5.2825 92.165,5.2 91.665,5.2 C91.165,5.2 90.7275,5.2825 90.3525,5.4475 C89.9775,5.6125 89.6525,5.8325 89.3775,6.1075 C89.1025,6.3825 88.8775,6.705 88.7025,7.075 C88.5275,7.445 88.3875,7.8325 88.2825,8.2375 C88.1775,8.6425 88.105,9.055 88.065,9.475 C88.025,9.895 88.005,10.3 88.005,10.69 C88.005,11.25 88.055,11.85 88.155,12.49 C88.255,13.13 88.44,13.725 88.71,14.275 C88.98,14.825 89.3525,15.28 89.8275,15.64 C90.3025,16 90.915,16.18 91.665,16.18 Z M91.665,14.92 C91.165,14.92 90.7675,14.765 90.4725,14.455 C90.1775,14.145 89.955,13.7675 89.805,13.3225 C89.655,12.8775 89.5575,12.415 89.5125,11.935 C89.4675,11.455 89.445,11.04 89.445,10.69 C89.445,10.45 89.4525,10.1775 89.4675,9.8725 C89.4825,9.5675 89.5175,9.2575 89.5725,8.9425 C89.6275,8.6275 89.705,8.3225 89.805,8.0275 C89.905,7.7325 90.0375,7.4675 90.2025,7.2325 C90.3675,6.9975 90.57,6.81 90.81,6.67 C91.05,6.53 91.335,6.46 91.665,6.46 C91.995,6.46 92.28,6.53 92.52,6.67 C92.76,6.81 92.9625,6.9975 93.1275,7.2325 C93.2925,7.4675 93.425,7.7325 93.525,8.0275 C93.625,8.3225 93.7025,8.6275 93.7575,8.9425 C93.8125,9.2575 93.8475,9.5675 93.8625,9.8725 C93.8775,10.1775 93.885,10.45 93.885,10.69 C93.885,11.04 93.8625,11.455 93.8175,11.935 C93.7725,12.415 93.675,12.8775 93.525,13.3225 C93.375,13.7675 93.1525,14.145 92.8575,14.455 C92.5625,14.765 92.165,14.92 91.665,14.92 Z M104.88,16 L107.34,7.915 L107.37,7.915 L109.83,16 L111.63,16 L114.72,5.38 L112.8,5.38 L110.715,13.03 L110.685,13.03 L108.345,5.38 L106.485,5.38 L104.1,13.03 L104.07,13.03 L102.075,5.38 L100.005,5.38 L103.14,16 L104.88,16 Z M123.21,16 L123.21,14.29 L117.795,14.29 L117.795,11.41 L122.67,11.41 L122.67,9.7 L117.795,9.7 L117.795,7.09 L122.94,7.09 L122.94,5.38 L115.905,5.38 L115.905,16 L123.21,16 Z M128.895,16 C129.395,16 129.8875,15.95 130.3725,15.85 C130.8575,15.75 131.2875,15.5825 131.6625,15.3475 C132.0375,15.1125 132.34,14.8025 132.57,14.4175 C132.8,14.0325 132.915,13.55 132.915,12.97 C132.915,12.63 132.8575,12.3125 132.7425,12.0175 C132.6275,11.7225 132.47,11.4625 132.27,11.2375 C132.07,11.0125 131.8275,10.8275 131.5425,10.6825 C131.2575,10.5375 130.95,10.445 130.62,10.405 L130.62,10.405 L130.62,10.375 C131.17,10.205 131.615,9.925 131.955,9.535 C132.295,9.145 132.465,8.65 132.465,8.05 C132.465,7.57 132.37,7.16 132.18,6.82 C131.99,6.48 131.7425,6.2025 131.4375,5.9875 C131.1325,5.7725 130.785,5.6175 130.395,5.5225 C130.005,5.4275 129.61,5.38 129.21,5.38 L129.21,5.38 L125.07,5.38 L125.07,16 L128.895,16 Z M128.685,9.7 L126.96,9.7 L126.96,7 L128.52,7 C129.24,7 129.7625,7.1125 130.0875,7.3375 C130.4125,7.5625 130.575,7.905 130.575,8.365 C130.575,8.765 130.4175,9.0875 130.1025,9.3325 C129.7875,9.5775 129.315,9.7 128.685,9.7 L128.685,9.7 Z M128.7,14.38 L126.96,14.38 L126.96,11.32 L128.775,11.32 C129.545,11.32 130.1125,11.43 130.4775,11.65 C130.8425,11.87 131.025,12.26 131.025,12.82 C131.025,13.17 130.95,13.4475 130.8,13.6525 C130.65,13.8575 130.46,14.015 130.23,14.125 C130,14.235 129.7475,14.305 129.4725,14.335 C129.1975,14.365 128.94,14.38 128.7,14.38 L128.7,14.38 Z M48.075,32 L48.075,27.32 L53.04,27.32 L53.04,32 L54.93,32 L54.93,21.38 L53.04,21.38 L53.04,25.61 L48.075,25.61 L48.075,21.38 L46.185,21.38 L46.185,32 L48.075,32 Z M62.34,32.27 C63.17,32.26 63.93,32.1175 64.62,31.8425 C65.31,31.5675 65.905,31.185 66.405,30.695 C66.905,30.205 67.295,29.62 67.575,28.94 C67.855,28.26 67.995,27.505 67.995,26.675 C67.995,25.825 67.855,25.055 67.575,24.365 C67.295,23.675 66.905,23.085 66.405,22.595 C65.905,22.105 65.31,21.7325 64.62,21.4775 C63.93,21.2225 63.17,21.1 62.34,21.11 C61.52,21.11 60.7675,21.2425 60.0825,21.5075 C59.3975,21.7725 58.8075,22.15 58.3125,22.64 C57.8175,23.13 57.43,23.7225 57.15,24.4175 C56.87,25.1125 56.73,25.885 56.73,26.735 C56.73,27.565 56.87,28.32 57.15,29 C57.43,29.68 57.8175,30.2625 58.3125,30.7475 C58.8075,31.2325 59.3975,31.6075 60.0825,31.8725 C60.7675,32.1375 61.52,32.27 62.34,32.27 Z M62.355,30.56 C61.805,30.56 61.3075,30.46 60.8625,30.26 C60.4175,30.06 60.035,29.785 59.715,29.435 C59.395,29.085 59.1475,28.67 58.9725,28.19 C58.7975,27.71 58.71,27.185 58.71,26.615 C58.71,26.085 58.7975,25.59 58.9725,25.13 C59.1475,24.67 59.395,24.2675 59.715,23.9225 C60.035,23.5775 60.4175,23.3075 60.8625,23.1125 C61.3075,22.9175 61.805,22.82 62.355,22.82 C62.905,22.82 63.405,22.9175 63.855,23.1125 C64.305,23.3075 64.69,23.5775 65.01,23.9225 C65.33,24.2675 65.5775,24.67 65.7525,25.13 C65.9275,25.59 66.015,26.085 66.015,26.615 C66.015,27.185 65.9275,27.71 65.7525,28.19 C65.5775,28.67 65.33,29.085 65.01,29.435 C64.69,29.785 64.305,30.06 63.855,30.26 C63.405,30.46 62.905,30.56 62.355,30.56 Z M72.555,32.27 C73.075,32.27 73.57,32.2 74.04,32.06 C74.51,31.92 74.9225,31.71 75.2775,31.43 C75.6325,31.15 75.915,30.7975 76.125,30.3725 C76.335,29.9475 76.44,29.45 76.44,28.88 C76.44,28.25 76.315,27.745 76.065,27.365 C75.815,26.985 75.505,26.68 75.135,26.45 C74.765,26.22 74.36,26.04 73.92,25.91 C73.48,25.78 73.075,25.645 72.705,25.505 C72.335,25.365 72.025,25.2 71.775,25.01 C71.525,24.82 71.4,24.545 71.4,24.185 C71.4,23.945 71.45,23.7375 71.55,23.5625 C71.65,23.3875 71.7825,23.245 71.9475,23.135 C72.1125,23.025 72.2975,22.945 72.5025,22.895 C72.7075,22.845 72.92,22.82 73.14,22.82 C73.51,22.82 73.8625,22.8875 74.1975,23.0225 C74.5325,23.1575 74.8,23.37 75,23.66 L75,23.66 L76.38,22.205 C75.96,21.815 75.4875,21.535 74.9625,21.365 C74.4375,21.195 73.895,21.11 73.335,21.11 C72.845,21.11 72.365,21.175 71.895,21.305 C71.425,21.435 71.0075,21.6325 70.6425,21.8975 C70.2775,22.1625 69.9825,22.495 69.7575,22.895 C69.5325,23.295 69.42,23.77 69.42,24.32 C69.42,24.95 69.545,25.4525 69.795,25.8275 C70.045,26.2025 70.355,26.5025 70.725,26.7275 C71.095,26.9525 71.5,27.13 71.94,27.26 C72.38,27.39 72.785,27.5275 73.155,27.6725 C73.525,27.8175 73.835,27.995 74.085,28.205 C74.335,28.415 74.46,28.715 74.46,29.105 C74.46,29.345 74.405,29.5575 74.295,29.7425 C74.185,29.9275 74.04,30.08 73.86,30.2 C73.68,30.32 73.48,30.41 73.26,30.47 C73.04,30.53 72.82,30.56 72.6,30.56 C72.18,30.56 71.7825,30.4625 71.4075,30.2675 C71.0325,30.0725 70.73,29.8 70.5,29.45 L70.5,29.45 L69.075,30.83 C69.515,31.35 70.04,31.72 70.65,31.94 C71.26,32.16 71.895,32.27 72.555,32.27 Z M82.47,32 L82.47,23.09 L85.725,23.09 L85.725,21.38 L77.325,21.38 L77.325,23.09 L80.58,23.09 L80.58,32 L82.47,32 Z M88.86,32 L88.86,21.38 L86.97,21.38 L86.97,32 L88.86,32 Z M93.075,32 L93.075,23.855 L93.105,23.855 L98.355,32 L100.755,32 L100.755,21.38 L98.865,21.38 L98.865,29.27 L98.835,29.27 L93.69,21.38 L91.185,21.38 L91.185,32 L93.075,32 Z M108.165,32.27 C109.785,32.27 111.25,31.92 112.56,31.22 L112.56,31.22 L112.56,25.79 L108.495,25.79 L108.495,27.5 L110.67,27.5 L110.67,30.005 C110.34,30.195 109.9625,30.335 109.5375,30.425 C109.1125,30.515 108.66,30.56 108.18,30.56 C107.63,30.56 107.1325,30.46 106.6875,30.26 C106.2425,30.06 105.86,29.785 105.54,29.435 C105.22,29.085 104.9725,28.67 104.7975,28.19 C104.6225,27.71 104.535,27.185 104.535,26.615 C104.535,26.085 104.6225,25.59 104.7975,25.13 C104.9725,24.67 105.22,24.2675 105.54,23.9225 C105.86,23.5775 106.2425,23.3075 106.6875,23.1125 C107.1325,22.9175 107.63,22.82 108.18,22.82 C108.72,22.82 109.2325,22.91 109.7175,23.09 C110.2025,23.27 110.615,23.525 110.955,23.855 L110.955,23.855 L112.35,22.445 C111.79,21.945 111.155,21.5975 110.445,21.4025 C109.735,21.2075 108.975,21.11 108.165,21.11 C107.345,21.11 106.5925,21.2425 105.9075,21.5075 C105.2225,21.7725 104.6325,22.15 104.1375,22.64 C103.6425,23.13 103.255,23.7225 102.975,24.4175 C102.695,25.1125 102.555,25.885 102.555,26.735 C102.555,27.565 102.695,28.32 102.975,29 C103.255,29.68 103.6425,30.2625 104.1375,30.7475 C104.6325,31.2325 105.2225,31.6075 105.9075,31.8725 C106.5925,32.1375 107.345,32.27 108.165,32.27 Z M121.995,32.27 C122.515,32.27 123.01,32.2 123.48,32.06 C123.95,31.92 124.3625,31.71 124.7175,31.43 C125.0725,31.15 125.355,30.7975 125.565,30.3725 C125.775,29.9475 125.88,29.45 125.88,28.88 C125.88,28.25 125.755,27.745 125.505,27.365 C125.255,26.985 124.945,26.68 124.575,26.45 C124.205,26.22 123.8,26.04 123.36,25.91 C122.92,25.78 122.515,25.645 122.145,25.505 C121.775,25.365 121.465,25.2 121.215,25.01 C120.965,24.82 120.84,24.545 120.84,24.185 C120.84,23.945 120.89,23.7375 120.99,23.5625 C121.09,23.3875 121.2225,23.245 121.3875,23.135 C121.5525,23.025 121.7375,22.945 121.9425,22.895 C122.1475,22.845 122.36,22.82 122.58,22.82 C122.95,22.82 123.3025,22.8875 123.6375,23.0225 C123.9725,23.1575 124.24,23.37 124.44,23.66 L124.44,23.66 L125.82,22.205 C125.4,21.815 124.9275,21.535 124.4025,21.365 C123.8775,21.195 123.335,21.11 122.775,21.11 C122.285,21.11 121.805,21.175 121.335,21.305 C120.865,21.435 120.4475,21.6325 120.0825,21.8975 C119.7175,22.1625 119.4225,22.495 119.1975,22.895 C118.9725,23.295 118.86,23.77 118.86,24.32 C118.86,24.95 118.985,25.4525 119.235,25.8275 C119.485,26.2025 119.795,26.5025 120.165,26.7275 C120.535,26.9525 120.94,27.13 121.38,27.26 C121.82,27.39 122.225,27.5275 122.595,27.6725 C122.965,27.8175 123.275,27.995 123.525,28.205 C123.775,28.415 123.9,28.715 123.9,29.105 C123.9,29.345 123.845,29.5575 123.735,29.7425 C123.625,29.9275 123.48,30.08 123.3,30.2 C123.12,30.32 122.92,30.41 122.7,30.47 C122.48,30.53 122.26,30.56 122.04,30.56 C121.62,30.56 121.2225,30.4625 120.8475,30.2675 C120.4725,30.0725 120.17,29.8 119.94,29.45 L119.94,29.45 L118.515,30.83 C118.955,31.35 119.48,31.72 120.09,31.94 C120.7,32.16 121.335,32.27 121.995,32.27 Z M135.15,32 L135.15,30.29 L129.735,30.29 L129.735,27.41 L134.61,27.41 L134.61,25.7 L129.735,25.7 L129.735,23.09 L134.88,23.09 L134.88,21.38 L127.845,21.38 L127.845,32 L135.15,32 Z M138.9,32 L138.9,27.5 L140.28,27.5 L142.74,32 L145.02,32 L142.2,27.305 C142.99,27.195 143.5975,26.88 144.0225,26.36 C144.4475,25.84 144.66,25.195 144.66,24.425 C144.66,23.825 144.55,23.33 144.33,22.94 C144.11,22.55 143.815,22.24 143.445,22.01 C143.075,21.78 142.6525,21.6175 142.1775,21.5225 C141.7025,21.4275 141.21,21.38 140.7,21.38 L140.7,21.38 L137.01,21.38 L137.01,32 L138.9,32 Z M140.37,25.88 L138.9,25.88 L138.9,23 L140.535,23 C140.775,23 141.0225,23.015 141.2775,23.045 C141.5325,23.075 141.765,23.1375 141.975,23.2325 C142.185,23.3275 142.355,23.47 142.485,23.66 C142.615,23.85 142.68,24.1 142.68,24.41 C142.68,24.76 142.61,25.0325 142.47,25.2275 C142.33,25.4225 142.1475,25.5675 141.9225,25.6625 C141.6975,25.7575 141.45,25.8175 141.18,25.8425 C140.91,25.8675 140.64,25.88 140.37,25.88 L140.37,25.88 Z M151.035,32 L155.325,21.38 L153.285,21.38 L150.3,29.405 L147.405,21.38 L145.23,21.38 L149.4,32 L151.035,32 Z M158.31,32 L158.31,21.38 L156.42,21.38 L156.42,32 L158.31,32 Z M165.675,32.27 C166.455,32.27 167.19,32.12 167.88,31.82 C168.57,31.52 169.155,31.04 169.635,30.38 L169.635,30.38 L168.075,29.27 C167.725,29.72 167.3475,30.0475 166.9425,30.2525 C166.5375,30.4575 166.12,30.56 165.69,30.56 C165.14,30.56 164.6425,30.46 164.1975,30.26 C163.7525,30.06 163.37,29.785 163.05,29.435 C162.73,29.085 162.4825,28.67 162.3075,28.19 C162.1325,27.71 162.045,27.185 162.045,26.615 C162.045,26.085 162.1325,25.59 162.3075,25.13 C162.4825,24.67 162.73,24.2675 163.05,23.9225 C163.37,23.5775 163.7525,23.3075 164.1975,23.1125 C164.6425,22.9175 165.14,22.82 165.69,22.82 C166.06,22.82 166.4275,22.89 166.7925,23.03 C167.1575,23.17 167.535,23.45 167.925,23.87 L167.925,23.87 L169.395,22.79 C168.865,22.18 168.2925,21.7475 167.6775,21.4925 C167.0625,21.2375 166.395,21.11 165.675,21.11 C164.855,21.11 164.1025,21.2425 163.4175,21.5075 C162.7325,21.7725 162.1425,22.15 161.6475,22.64 C161.1525,23.13 160.765,23.7225 160.485,24.4175 C160.205,25.1125 160.065,25.885 160.065,26.735 C160.065,27.565 160.205,28.32 160.485,29 C160.765,29.68 161.1525,30.2625 161.6475,30.7475 C162.1425,31.2325 162.7325,31.6075 163.4175,31.8725 C164.1025,32.1375 164.855,32.27 165.675,32.27 Z M178.215,32 L178.215,30.29 L172.8,30.29 L172.8,27.41 L177.675,27.41 L177.675,25.7 L172.8,25.7 L172.8,23.09 L177.945,23.09 L177.945,21.38 L170.91,21.38 L170.91,32 L178.215,32 Z M182.835,32.27 C183.355,32.27 183.85,32.2 184.32,32.06 C184.79,31.92 185.2025,31.71 185.5575,31.43 C185.9125,31.15 186.195,30.7975 186.405,30.3725 C186.615,29.9475 186.72,29.45 186.72,28.88 C186.72,28.25 186.595,27.745 186.345,27.365 C186.095,26.985 185.785,26.68 185.415,26.45 C185.045,26.22 184.64,26.04 184.2,25.91 C183.76,25.78 183.355,25.645 182.985,25.505 C182.615,25.365 182.305,25.2 182.055,25.01 C181.805,24.82 181.68,24.545 181.68,24.185 C181.68,23.945 181.73,23.7375 181.83,23.5625 C181.93,23.3875 182.0625,23.245 182.2275,23.135 C182.3925,23.025 182.5775,22.945 182.7825,22.895 C182.9875,22.845 183.2,22.82 183.42,22.82 C183.79,22.82 184.1425,22.8875 184.4775,23.0225 C184.8125,23.1575 185.08,23.37 185.28,23.66 L185.28,23.66 L186.66,22.205 C186.24,21.815 185.7675,21.535 185.2425,21.365 C184.7175,21.195 184.175,21.11 183.615,21.11 C183.125,21.11 182.645,21.175 182.175,21.305 C181.705,21.435 181.2875,21.6325 180.9225,21.8975 C180.5575,22.1625 180.2625,22.495 180.0375,22.895 C179.8125,23.295 179.7,23.77 179.7,24.32 C179.7,24.95 179.825,25.4525 180.075,25.8275 C180.325,26.2025 180.635,26.5025 181.005,26.7275 C181.375,26.9525 181.78,27.13 182.22,27.26 C182.66,27.39 183.065,27.5275 183.435,27.6725 C183.805,27.8175 184.115,27.995 184.365,28.205 C184.615,28.415 184.74,28.715 184.74,29.105 C184.74,29.345 184.685,29.5575 184.575,29.7425 C184.465,29.9275 184.32,30.08 184.14,30.2 C183.96,30.32 183.76,30.41 183.54,30.47 C183.32,30.53 183.1,30.56 182.88,30.56 C182.46,30.56 182.0625,30.4625 181.6875,30.2675 C181.3125,30.0725 181.01,29.8 180.78,29.45 L180.78,29.45 L179.355,30.83 C179.795,31.35 180.32,31.72 180.93,31.94 C181.54,32.16 182.175,32.27 182.835,32.27 Z" id="TOP10WEBHOSTINGSERVICES" fill="#000000" fill-rule="nonzero"></path>
                    <g id="Group-4">
                        <g id="Rectangle">
                            <use fill="black" fill-opacity="1" filter="url(#filter-2)" xlink:href="#path-1"></use>
                            <use fill="#FFFFFF" fill-rule="evenodd" xlink:href="#path-1"></use>
                        </g>
                        <g id="server-2-2" transform="translate(6.000000, 6.000000)" fill-rule="nonzero">
                            <g id="server-2">
                                <path d="M11.4765625,24.4765625 L3.80859375,24.4765625 C3.38756641,24.4765625 3.046875,24.1358711 3.046875,23.7148438 C3.046875,23.2938164 3.38756641,22.953125 3.80859375,22.953125 L11.4765625,22.953125 C11.8975898,22.953125 12.2382813,23.2938164 12.2382813,23.7148438 C12.2382813,24.1358711 11.8975898,24.4765625 11.4765625,24.4765625 Z" id="Path" fill="#1689FC"></path>
                                <path d="M22.1914063,24.4765625 L14.5234375,24.4765625 C14.1024102,24.4765625 13.7617188,24.1358711 13.7617188,23.7148438 C13.7617188,23.2938164 14.1024102,22.953125 14.5234375,22.953125 L22.1914063,22.953125 C22.6124336,22.953125 22.953125,23.2938164 22.953125,23.7148438 C22.953125,24.1358711 22.6124336,24.4765625 22.1914063,24.4765625 Z" id="Path" fill="#136EF1"></path>
                                <path d="M13.7617188,19.0429688 L13.7617188,22.1914063 C13.7617188,22.617918 13.4266133,22.953125 13,22.953125 C12.5733867,22.953125 12.2382813,22.617918 12.2382813,22.1914063 L12.2382813,19.0429688 C12.2382813,18.6163555 12.5733867,18.28125 13,18.28125 C13.4266133,18.28125 13.7617188,18.6163555 13.7617188,19.0429688 Z" id="Path" fill="#1689FC"></path>
                                <path d="M13.7617188,19.0429688 L13.7617188,22.1914063 C13.7617188,22.617918 13.4266133,22.953125 13,22.953125 L13,18.28125 C13.4266133,18.28125 13.7617188,18.6163555 13.7617188,19.0429688 Z" id="Path" fill="#136EF1"></path>
                                <path d="M13,21.4296875 C11.7354961,21.4296875 10.7148438,22.4503398 10.7148438,23.7148438 C10.7148438,24.9792461 11.7354961,26 13,26 C14.2645039,26 15.2851563,24.9792461 15.2851563,23.7148438 C15.2851563,22.4503398 14.2645039,21.4296875 13,21.4296875 Z" id="Path" fill="#00C8C8"></path>
                                <path d="M23.7148438,26 C22.4547578,26 21.4296875,24.9749297 21.4296875,23.7148438 C21.4296875,22.4547578 22.4547578,21.4296875 23.7148438,21.4296875 C24.9749297,21.4296875 26,22.4547578 26,23.7148438 C26,24.9749297 24.9749297,26 23.7148438,26 Z" id="Path" fill="#00A1B2"></path>
                                <path d="M23.7148438,24.4765625 C23.294832,24.4765625 22.953125,24.1348555 22.953125,23.7148438 C22.953125,23.294832 23.294832,22.953125 23.7148438,22.953125 C24.1348555,22.953125 24.4765625,23.294832 24.4765625,23.7148438 C24.4765625,24.1348555 24.1348555,24.4765625 23.7148438,24.4765625 Z" id="Path" fill="#BFE1FF"></path>
                                <path d="M2.28515625,26 C1.02507031,26 0,24.9749297 0,23.7148438 C0,22.4547578 1.02507031,21.4296875 2.28515625,21.4296875 C3.54524219,21.4296875 4.5703125,22.4547578 4.5703125,23.7148438 C4.5703125,24.9749297 3.54524219,26 2.28515625,26 Z" id="Path" fill="#00C8C8"></path>
                                <path d="M2.28515625,24.4765625 C1.86514453,24.4765625 1.5234375,24.1348555 1.5234375,23.7148438 C1.5234375,23.294832 1.86514453,22.953125 2.28515625,22.953125 C2.70516797,22.953125 3.046875,23.294832 3.046875,23.7148438 C3.046875,24.1348555 2.70516797,24.4765625 2.28515625,24.4765625 Z" id="Path" fill="#E1F1FA"></path>
                                <g id="Group" transform="translate(1.523438, 6.093750)" fill="#0053BF">
                                    <path d="M22.1914062,0 L0.76171875,0 C0.335105469,0 0,0.335105469 0,0.76171875 L0,3.80859375 C0,4.23510547 0.335105469,4.5703125 0.76171875,4.5703125 L22.1914062,4.5703125 C22.6180195,4.5703125 22.953125,4.23510547 22.953125,3.80859375 L22.953125,0.76171875 C22.953125,0.335105469 22.6180195,0 22.1914062,0 Z" id="Path"></path>
                                    <path d="M22.1914062,9.140625 L0.76171875,9.140625 C0.335105469,9.140625 0,9.47573047 0,9.90234375 L0,11.4257813 C0,12.6901836 1.02065234,13.7109375 2.28515625,13.7109375 L20.6679687,13.7109375 C21.9324727,13.7109375 22.953125,12.6901836 22.953125,11.4257813 L22.953125,9.90234375 C22.953125,9.47573047 22.6180195,9.140625 22.1914062,9.140625 Z" id="Path"></path>
                                </g>
                                <path d="M23.7148438,9.140625 L2.28515625,9.140625 C1.02065234,9.140625 0,10.1612773 0,11.4257813 L0,14.4726562 C0,15.7370586 1.02065234,16.7578125 2.28515625,16.7578125 L23.7148438,16.7578125 C24.9793477,16.7578125 26,15.7370586 26,14.4726562 L26,11.4257813 C26,10.1612773 24.9793477,9.140625 23.7148438,9.140625 Z" id="Path" fill="#65B1FC"></path>
                                <path d="M15.2851563,23.7148438 C15.2851563,24.9792461 14.2645039,26 13,26 L13,21.4296875 C14.2645039,21.4296875 15.2851563,22.4503398 15.2851563,23.7148438 Z" id="Path" fill="#00A1B2"></path>
                                <path d="M13,24.4765625 C12.5799883,24.4765625 12.2382813,24.1348555 12.2382813,23.7148438 C12.2382813,23.294832 12.5799883,22.953125 13,22.953125 C13.4200117,22.953125 13.7617188,23.294832 13.7617188,23.7148438 C13.7617188,24.1348555 13.4200117,24.4765625 13,24.4765625 Z" id="Path" fill="#E1F1FA"></path>
                                <path d="M13.7617188,23.7148438 C13.7617188,23.294832 13.4200117,22.953125 13,22.953125 L13,24.4765625 C13.4200117,24.4765625 13.7617188,24.1348555 13.7617188,23.7148438 Z" id="Path" fill="#BFE1FF"></path>
                                <g id="Group" transform="translate(13.000000, 6.093750)" fill="#05377F">
                                    <path d="M11.4765625,0.76171875 L11.4765625,3.80859375 C11.4765625,4.23510547 11.141457,4.5703125 10.7148437,4.5703125 L0,4.5703125 L0,0 L10.7148437,0 C11.141457,0 11.4765625,0.335105469 11.4765625,0.76171875 Z" id="Path"></path>
                                    <path d="M11.4765625,9.90234375 L11.4765625,11.4257813 C11.4765625,12.6901836 10.4559102,13.7109375 9.19140625,13.7109375 L0,13.7109375 L0,9.140625 L10.7148437,9.140625 C11.141457,9.140625 11.4765625,9.47573047 11.4765625,9.90234375 Z" id="Path"></path>
                                </g>
                                <path d="M26,11.4257813 L26,14.4726562 C26,15.7370586 24.9793477,16.7578125 23.7148438,16.7578125 L13,16.7578125 L13,9.140625 L23.7148438,9.140625 C24.9793477,9.140625 26,10.1612773 26,11.4257813 Z" id="Path" fill="#1689FC"></path>
                                <path d="M23.7148438,0 L2.28515625,0 C1.02065234,0 0,1.02065234 0,2.28515625 L0,5.33203125 C0,6.59643359 1.02065234,7.6171875 2.28515625,7.6171875 L23.7148438,7.6171875 C24.9793477,7.6171875 26,6.59643359 26,5.33203125 L26,2.28515625 C26,1.02065234 24.9793477,0 23.7148438,0 Z" id="Path" fill="#65B1FC"></path>
                                <path d="M26,2.28515625 L26,5.33203125 C26,6.59643359 24.9793477,7.6171875 23.7148438,7.6171875 L13,7.6171875 L13,0 L23.7148438,0 C24.9793477,0 26,1.02065234 26,2.28515625 Z" id="Path" fill="#1689FC"></path>
                                <circle id="Oval" fill="#E1F1FA" cx="3.80859375" cy="3.80859375" r="1"></circle>
                                <g id="Group" transform="translate(6.144531, 3.046875)" fill="#0053BF">
                                    <circle id="Oval" cx="0.76171875" cy="0.76171875" r="1"></circle>
                                    <circle id="Oval" cx="3.80859375" cy="0.76171875" r="1"></circle>
                                </g>
                                <path d="M22.1914063,4.5703125 L14.5234375,4.5703125 C14.1024102,4.5703125 13.7617188,4.22962109 13.7617188,3.80859375 C13.7617188,3.38756641 14.1024102,3.046875 14.5234375,3.046875 L22.1914063,3.046875 C22.6124336,3.046875 22.953125,3.38756641 22.953125,3.80859375 C22.953125,4.22962109 22.6124336,4.5703125 22.1914063,4.5703125 Z" id="Path" fill="#05377F"></path>
                                <circle id="Oval" fill="#E1F1FA" cx="3.80859375" cy="12.9492188" r="1"></circle>
                                <g id="Group" transform="translate(6.144531, 12.187500)" fill="#0053BF">
                                    <circle id="Oval" cx="0.76171875" cy="0.76171875" r="1"></circle>
                                    <circle id="Oval" cx="3.80859375" cy="0.76171875" r="1"></circle>
                                </g>
                                <path d="M22.1914063,13.7109375 L14.5234375,13.7109375 C14.1024102,13.7109375 13.7617188,13.3702461 13.7617188,12.9492188 C13.7617188,12.5281914 14.1024102,12.1875 14.5234375,12.1875 L22.1914063,12.1875 C22.6124336,12.1875 22.953125,12.5281914 22.953125,12.9492188 C22.953125,13.3702461 22.6124336,13.7109375 22.1914063,13.7109375 Z" id="Path" fill="#05377F"></path>
                            </g>
                        </g>
                    </g>
                </g>
            </g>
        </g>
    </g>
</svg>