<?xml version="1.0" encoding="UTF-8"?>
<svg width="116px" height="102px" viewBox="0 0 116 102" version="1.1" xmlns="http://www.w3.org/2000/svg" xmlns:xlink="http://www.w3.org/1999/xlink">
    <!-- Generator: Sketch 60.1 (88133) - https://sketch.com -->
    <title>Group 41</title>
    <desc>Created with Sketch.</desc>
    <g id="Page-1" stroke="none" stroke-width="1" fill="none" fill-rule="evenodd">
        <g id="Group-41">
            <rect id="Rectangle-Copy-32" fill="#202843" fill-rule="nonzero" x="0" y="0" width="116" height="4" rx="2"></rect>
            <path d="M5,9 L112,9 L112,53.3560757 C112,65.4644135 105.368852,76.6003326 94.7232652,82.3695024 C82.6488434,88.9130016 70.5744217,95.4565008 58.5,102 C46.4255783,95.4565008 34.3511566,88.9130016 22.2767348,82.3695024 C11.6311478,76.6003326 5,65.4644135 5,53.3560757 L5,9 L5,9 Z" id="Rectangle" fill="#202843"></path>
            <path d="M34.5205078,39 C38.5942383,39 41.1650391,36.8510742 41.1650391,33.515625 C41.1650391,30.984375 39.1347656,29.0727539 36.5639648,28.9541016 L36.5639648,28.8486328 C38.6733398,28.5585938 40.2817383,26.8579102 40.2817383,24.722168 C40.2817383,21.7822266 38.0273438,19.9760742 34.2832031,19.9760742 L25.4370117,19.9760742 L25.4370117,39 L34.5205078,39 Z M32.7670898,27.7280273 L30.2753906,27.7280273 L30.2753906,23.4038086 L33.0043945,23.4038086 C34.6259766,23.4038086 35.5751953,24.1948242 35.5751953,25.5263672 C35.5751953,26.8974609 34.5205078,27.7280273 32.7670898,27.7280273 Z M33.1494141,35.5722656 L30.2753906,35.5722656 L30.2753906,30.6679688 L33.1230469,30.6679688 C35.1137695,30.6679688 36.2475586,31.5380859 36.2475586,33.09375 C36.2475586,34.7021484 35.1401367,35.5722656 33.1494141,35.5722656 Z M57.041188,39 L57.041188,35.0976562 L48.8409926,35.0976562 L48.8409926,31.2216797 L56.553395,31.2216797 L56.553395,27.6621094 L48.8409926,27.6621094 L48.8409926,23.878418 L57.041188,23.878418 L57.041188,19.9760742 L44.0026137,19.9760742 L44.0026137,39 L57.041188,39 Z M67.8943876,39.3295898 C72.9173369,39.3295898 75.9100126,36.9038086 75.9100126,33.0805664 C75.9100126,30.0878906 74.0643095,28.4399414 70.0037626,27.6621094 L68.0525908,27.2929688 C65.9827665,26.8974609 65.1126494,26.34375 65.1126494,25.3417969 C65.1126494,24.2211914 66.1541533,23.4301758 67.9075712,23.4301758 C69.6609892,23.4301758 70.9529814,24.2475586 71.032083,25.6186523 L75.5276884,25.6186523 C75.474954,21.9931641 72.653665,19.6464844 67.8680205,19.6464844 C63.4910673,19.6464844 60.3138212,22.0063477 60.3138212,25.6713867 C60.3138212,28.5717773 62.2781767,30.4306641 66.0750517,31.1425781 L68.0262236,31.5117188 C70.2806181,31.9467773 71.0980009,32.4873047 71.0980009,33.5419922 C71.0980009,34.7021484 69.8719267,35.5458984 67.9866728,35.5458984 C66.1277861,35.5458984 64.6644072,34.7548828 64.4402861,33.3969727 L59.9446806,33.3969727 C60.0105986,37.1411133 63.1482939,39.3295898 67.8943876,39.3295898 Z M88.1738568,39 L88.1738568,23.878418 L93.4209272,23.878418 L93.4209272,19.9760742 L78.1015912,19.9760742 L78.1015912,23.878418 L83.3486615,23.878418 L83.3486615,39 L88.1738568,39 Z" id="BEST" fill="#FFFFFF" fill-rule="nonzero"></path>
            <path d="M39.0039062,53.1572266 C41.7587891,53.1572266 43.4882812,51.1953125 43.4882812,48.0712891 C43.4882812,44.9472656 41.7519531,42.9785156 39.0039062,42.9785156 C36.2558594,42.9785156 34.5263672,44.9472656 34.5263672,48.0712891 C34.5263672,51.1953125 36.2558594,53.1572266 39.0039062,53.1572266 Z M39.0039062,52.2890625 C36.84375,52.2890625 35.4833984,50.6552734 35.4833984,48.0712891 C35.4833984,45.4804688 36.84375,43.8466797 39.0039062,43.8466797 C41.1640625,43.8466797 42.53125,45.4804688 42.53125,48.0712891 C42.53125,50.6552734 41.1640625,52.2890625 39.0039062,52.2890625 Z M46.2721163,53 L46.2721163,44.7558594 L46.3199678,44.7558594 L52.1236788,53 L53.0260225,53 L53.0260225,43.1357422 L52.103171,43.1357422 L52.103171,51.3730469 L52.0553194,51.3730469 L46.2721163,43.1357422 L45.3492647,43.1357422 L45.3492647,53 L46.2721163,53 Z M61.1555607,53 L61.1555607,52.1523438 L56.2131778,52.1523438 L56.2131778,43.1357422 L55.2834903,43.1357422 L55.2834903,53 L61.1555607,53 Z M63.8163488,53 L63.8163488,43.1357422 L62.8866613,43.1357422 L62.8866613,53 L63.8163488,53 Z M66.9966682,53 L66.9966682,44.7558594 L67.0445198,44.7558594 L72.8482307,53 L73.7505744,53 L73.7505744,43.1357422 L72.8277229,43.1357422 L72.8277229,51.3730469 L72.7798713,51.3730469 L66.9966682,43.1357422 L66.0738166,43.1357422 L66.0738166,53 L66.9966682,53 Z M81.9621438,53 L81.9621438,52.1523438 L76.9377298,52.1523438 L76.9377298,48.3652344 L81.7092142,48.3652344 L81.7092142,47.53125 L76.9377298,47.53125 L76.9377298,43.9833984 L81.9621438,43.9833984 L81.9621438,43.1357422 L76.0080423,43.1357422 L76.0080423,53 L81.9621438,53 Z" id="ONLINE" fill="#FFFFFF" fill-rule="nonzero"></path>
            <g id="Group-40" transform="translate(17.000000, 57.000000)">
                <path d="M0,0 L85,0 C80.8245614,6 78.7368421,9 78.7368421,9 C78.7368421,9 80.8245614,12 85,18 L0,18 C4.1754386,12 6.26315789,9 6.26315789,9 C6.26315789,9 4.1754386,6 0,0 Z" id="Rectangle" fill="#F01639"></path>
                <path d="M15.6826172,14 C17.78125,14 19.0253906,12.9677734 19.0253906,11.2314453 C19.0253906,9.91894531 18.1640625,8.97558594 16.8242188,8.8046875 L16.8242188,8.75 C17.7744141,8.57910156 18.5263672,7.62207031 18.5263672,6.59667969 C18.5263672,5.12011719 17.3847656,4.13574219 15.6962891,4.13574219 L11.9570312,4.13574219 L11.9570312,14 L15.6826172,14 Z M15.0332031,8.38769531 L13.1875,8.38769531 L13.1875,5.22265625 L15.4160156,5.22265625 C16.6123047,5.22265625 17.2822266,5.76269531 17.2822266,6.74023438 C17.2822266,7.80664062 16.4892578,8.38769531 15.0332031,8.38769531 Z M15.4980469,12.9130859 L13.1875,12.9130859 L13.1875,9.44726562 L15.3818359,9.44726562 C16.9541016,9.44726562 17.7607422,10.0283203 17.7607422,11.1699219 C17.7607422,12.3115234 16.9814453,12.9130859 15.4980469,12.9130859 Z M22.0621553,14 L22.0621553,10.0966797 L24.4205538,10.0966797 L26.5328585,14 L27.9752413,14 L25.6920381,9.90527344 C26.9293428,9.515625 27.67446,8.44921875 27.67446,7.07519531 C27.67446,5.29785156 26.4303194,4.13574219 24.5299288,4.13574219 L20.8316866,4.13574219 L20.8316866,14 L22.0621553,14 Z M24.4205538,9.00976562 L22.0621553,9.00976562 L22.0621553,5.22949219 L24.3658663,5.22949219 C25.6373506,5.22949219 26.4029756,5.93359375 26.4029756,7.11621094 C26.4029756,8.32617188 25.6852022,9.00976562 24.4205538,9.00976562 Z M33.7942325,14.1640625 C36.590131,14.1640625 38.340131,12.2021484 38.340131,9.07128906 C38.340131,5.94042969 36.590131,3.97167969 33.7942325,3.97167969 C30.9983341,3.97167969 29.2483341,5.94042969 29.2483341,9.07128906 C29.2483341,12.2021484 30.9983341,14.1640625 33.7942325,14.1640625 Z M33.7942325,13.0292969 C31.777631,13.0292969 30.5129825,11.4980469 30.5129825,9.07128906 C30.5129825,6.63769531 31.777631,5.10644531 33.7942325,5.10644531 C35.8108341,5.10644531 37.0754825,6.63769531 37.0754825,9.07128906 C37.0754825,11.4980469 35.8108341,13.0292969 33.7942325,13.0292969 Z M41.5136144,14 L41.5136144,10.5546875 L42.5800207,9.37890625 L46.2782629,14 L47.8505285,14 L43.4345129,8.50390625 L47.4882238,4.13574219 L45.936466,4.13574219 L41.5819738,8.94824219 L41.5136144,8.94824219 L41.5136144,4.13574219 L40.2831457,4.13574219 L40.2831457,14 L41.5136144,14 Z M55.4195198,14 L55.4195198,12.8925781 L50.5386604,12.8925781 L50.5386604,9.50195312 L55.1665901,9.50195312 L55.1665901,8.40820312 L50.5386604,8.40820312 L50.5386604,5.24316406 L55.4195198,5.24316406 L55.4195198,4.13574219 L49.3081916,4.13574219 L49.3081916,14 L55.4195198,14 Z M58.6818704,14 L58.6818704,10.0966797 L61.0402688,10.0966797 L63.1525735,14 L64.5949563,14 L62.3117532,9.90527344 C63.5490579,9.515625 64.2941751,8.44921875 64.2941751,7.07519531 C64.2941751,5.29785156 63.0500345,4.13574219 61.1496438,4.13574219 L57.4514017,4.13574219 L57.4514017,14 L58.6818704,14 Z M61.0402688,9.00976562 L58.6818704,9.00976562 L58.6818704,5.22949219 L60.9855813,5.22949219 C62.2570657,5.22949219 63.0226907,5.93359375 63.0226907,7.11621094 C63.0226907,8.32617188 62.3049173,9.00976562 61.0402688,9.00976562 Z M69.4774242,14.1640625 C71.685432,14.1640625 73.1209789,13.0224609 73.1209789,11.1972656 C73.1209789,9.80273438 72.3075023,8.98242188 70.2498851,8.53125 L69.1561351,8.29199219 C67.8094554,7.99804688 67.2830882,7.46484375 67.2830882,6.68554688 C67.2830882,5.68066406 68.2332835,5.07910156 69.4637523,5.07910156 C70.7489085,5.07910156 71.6034007,5.7421875 71.7127757,6.82226562 L72.9432445,6.82226562 C72.888557,5.14746094 71.466682,3.97167969 69.497932,3.97167969 C67.4539867,3.97167969 66.0184398,5.11328125 66.0184398,6.74023438 C66.0184398,8.14160156 66.872932,9.03710938 68.8485179,9.46777344 L69.9422679,9.70703125 C71.3094554,10.0078125 71.8563304,10.5546875 71.8563304,11.3818359 C71.8563304,12.3525391 70.8856273,13.0566406 69.5457835,13.0566406 C68.1307445,13.0566406 67.1463695,12.4140625 67.0028148,11.3544922 L65.772346,11.3544922 C65.888557,13.0566406 67.3241039,14.1640625 69.4774242,14.1640625 Z" id="BROKERS" fill="#FFFFFF" fill-rule="nonzero"></path>
            </g>
        </g>
    </g>
</svg>