<?xml version="1.0" encoding="UTF-8"?>
<svg width="207px" height="234px" viewBox="0 0 207 234" version="1.1" xmlns="http://www.w3.org/2000/svg" xmlns:xlink="http://www.w3.org/1999/xlink">
    <!-- Generator: sketchtool 60.1 (101010) - https://sketch.com -->
    <title>AD846EED-261C-4535-B667-338D76A5D344</title>
    <desc>Created with sketchtool.</desc>
    <g id="Page-1" stroke="none" stroke-width="1" fill="none" fill-rule="evenodd">
        <g id="Contact-Us" transform="translate(-906.000000, -518.000000)" fill-rule="nonzero">
            <g id="mail-2-2" transform="translate(906.000000, 518.000000)">
                <g id="mail-2">
                    <path d="M204.92954,85.2358711 L198.85662,104.979621 L131.1,172.300781 L75.9,172.300781 L7.59046,104.431641 L2.07,85.2358711 L29.67,57.8139961 C30.912,56.4433594 32.706,55.7578125 34.5,55.7578125 L172.5,55.7578125 C174.294,55.7578125 176.088,56.4433594 177.32954,57.8139961 L204.92954,85.2358711 Z" id="Path" fill="#FEDB41"></path>
                    <path d="M204.92954,85.2358711 L198.85662,104.979621 L131.1,172.300781 L103.5,172.300781 L103.5,55.7578125 L172.5,55.7578125 C174.294,55.7578125 176.088,56.4433594 177.32954,57.8139961 L204.92954,85.2358711 Z" id="Path" fill="#FFCC33"></path>
                    <path d="M172.5,0 L34.5,0 C30.63554,0 27.6,3.01594922 27.6,6.85546875 L27.6,186.011719 C27.6,189.850324 30.63554,192.867188 34.5,192.867188 L172.5,192.867188 C176.36446,192.867188 179.4,189.850324 179.4,186.011719 L179.4,6.85546875 C179.4,3.01594922 176.36446,0 172.5,0 Z" id="Path" fill="#CAE8F9"></path>
                    <path d="M179.4,6.85546875 L179.4,186.011719 C179.4,189.850324 176.36446,192.867188 172.5,192.867188 L103.5,192.867188 L103.5,0 L172.5,0 C176.36446,0 179.4,3.01594922 179.4,6.85546875 Z" id="Path" fill="#B7E0F6"></path>
                    <path d="M124.2,76.3242188 C124.2,64.9436836 114.95492,55.7578125 103.5,55.7578125 C92.04508,55.7578125 82.8,64.9436836 82.8,76.3242188 C82.8,87.7038398 92.04508,96.890625 103.5,96.890625 C108.882,96.890625 113.57354,94.8335273 117.3,91.5433594 C130.68554,103.608984 151.8,94.0113281 151.8,76.3242188 C151.8,49.8621094 130.13308,28.3359375 103.5,28.3359375 C76.86692,28.3359375 55.2,49.8621094 55.2,76.3242188 C55.2,92.7773438 63.47954,107.859375 77.556,116.771484 C85.55954,121.844531 94.39338,124.3125 103.5,124.3125 C110.95246,124.3125 118.40492,122.667188 125.57954,119.376563 C129.02954,117.730336 130.54754,113.754621 128.89292,110.326887 C127.37354,106.762043 123.23262,105.390949 119.78262,106.899152 C114.40246,109.367121 108.882,110.601563 103.5,110.601563 C97.01446,110.601563 90.66692,108.819141 85.00662,105.254297 C74.93308,98.8101563 69,88.115625 69,76.3242188 C69,57.403125 84.456,42.046875 103.5,42.046875 C122.544,42.046875 138,57.403125 138,76.3242188 C138,85.3729805 124.2,85.3729805 124.2,76.3242188 Z M110.262,77.146875 C109.84754,80.5746094 106.95,83.1796875 103.5,83.1796875 C99.63554,83.1796875 96.6,80.1628242 96.6,76.3242188 C96.6,72.4846992 99.63554,69.46875 103.5,69.46875 C107.088,69.46875 109.98554,72.3475898 110.262,75.9124336 L110.262,77.146875 Z" id="Shape" fill="#17ACE8"></path>
                    <g id="Group" transform="translate(103.500000, 28.335938)" fill="#1689FC">
                        <path d="M25.39338,81.9909492 C27.04754,85.4186836 25.53,89.3943984 22.08,91.040625 C14.90492,94.33125 7.45246,95.9765625 0,95.9765625 L0,82.265625 C5.382,82.265625 10.90246,81.0311836 16.28308,78.5632148 C19.73308,77.0554688 23.87354,78.4261055 25.39338,81.9909492 Z" id="Path"></path>
                        <path d="M48.3,47.9882813 C48.3,65.6749336 27.18554,75.2730469 13.8,63.2074219 C10.07354,66.4980469 5.382,68.5546875 0,68.5546875 L0,54.84375 C3.45,54.84375 6.34754,52.2386719 6.762,48.8109375 L6.762,47.5764961 C6.48554,44.0116523 3.588,41.1328125 0,41.1328125 L0,27.421875 C11.45492,27.421875 20.7,36.6077461 20.7,47.9882813 C20.7,57.037043 34.5,57.037043 34.5,47.9882813 C34.5,29.0671875 19.044,13.7109375 0,13.7109375 L0,0 C26.63308,0 48.3,21.5261719 48.3,47.9882813 Z" id="Path"></path>
                    </g>
                    <path d="M2.0217,85.1883398 C0.72772,86.4735117 0,88.2143438 0,90.0351563 L0,213.433594 C0,218.773547 2.02308,223.704457 6.05084,227.987297 L26.19838,221.68118 L80.85926,167.373984 L75.9,158.589844 L2.0217,85.1883398 Z" id="Path" fill="#FEA832"></path>
                    <path d="M207,213.433594 L207,90.0351563 C207,88.2143438 206.27228,86.4735117 204.9783,85.1883398 L131.1,158.589844 L125.17658,166.41559 L180.80806,221.687578 L200.94916,227.987297 C200.99976,227.940223 201.06048,227.928797 201.11108,227.880809 C204.96496,223.830598 207,218.83616 207,213.433594 Z" id="Path" fill="#FE9923"></path>
                    <path d="M200.92892,227.967188 C196.65,231.942902 191.682,234 186.3,234 L20.7,234 C15.318,234 10.212,231.942902 6.20954,228.104297 C6.07154,228.104297 6.07154,228.104297 6.07154,227.967188 L75.9,158.589844 L131.1,158.589844 L200.92892,227.967188 Z" id="Path" fill="#FEDB41"></path>
                    <path d="M200.92892,227.967188 C196.65,231.942902 191.682,234 186.3,234 L103.5,234 L103.5,158.589844 L131.1,158.589844 L200.92892,227.967188 Z" id="Path" fill="#FFCC33"></path>
                </g>
            </g>
        </g>
    </g>
</svg>