<?xml version="1.0" encoding="UTF-8"?>
<svg width="127px" height="45px" viewBox="0 0 127 45" version="1.1" xmlns="http://www.w3.org/2000/svg" xmlns:xlink="http://www.w3.org/1999/xlink">
    <!-- Generator: Sketch 60.1 (88133) - https://sketch.com -->
    <title>top10onlinebrokers_logo</title>
    <desc>Created with Sketch.</desc>
    <g id="Page-1" stroke="none" stroke-width="1" fill="none" fill-rule="evenodd">
        <g id="top10onlinebrokers_logo" fill-rule="nonzero">
            <g id="financial-2">
                <g id="financial">
                    <g id="Group" transform="translate(8.710149, 6.982454)">
                        <path d="M16.2120348,0.0321938763 C11.9242925,0.0661393589 7.88337033,1.75114135 4.83374148,4.77696853 C1.7842105,7.80269873 0.0888630978,11.8090759 0.0600902446,16.0580933 C0.0376787364,19.3621518 1.02045762,22.5470238 2.90233924,25.2681444 C4.55491883,27.6577925 6.79215497,29.5446068 9.41205049,30.7680879 L16.3437636,33.3322973 L19.4719795,16.3893719 L16.3437636,0.0326817653 C16.2998214,0.0327787438 16.255977,0.0321938763 16.2120348,0.0321938763 Z" id="Path" fill-opacity="0.421219406" fill="#DEFAFB"></path>
                        <path d="M27.8071032,4.71713278 C24.7301695,1.69237236 20.6618446,0.0288996026 16.3437636,0.0324234987 C17.8860354,7.38897336 18.6571713,12.9389914 18.6571713,16.6824831 C18.6571713,20.3389074 17.8860354,25.8888454 16.3437636,33.3322973 L23.2755746,30.767991 C25.879322,29.5519771 28.1061843,27.6798066 29.7559257,25.3103301 C31.6347735,22.6118055 32.6278284,19.4504993 32.6278284,16.1680669 C32.6278284,11.839915 30.9157458,7.77321726 27.8071032,4.71713278 Z" id="Path" fill-opacity="0.248961976" fill="#CEF2FB"></path>
                    </g>
                    <g id="Group" transform="translate(0.000000, 5.915690)" fill="#FFFF6E">
                        <polygon id="Path" points="0 17.4561358 3.47554537 17.4561358 3.47554537 20.3654917 0 20.3654917"></polygon>
                        <polygon id="Path" transform="translate(8.275015, 2.285881) rotate(-45.000000) translate(-8.275015, -2.285881) " points="6.80598716 0.544675995 9.7282265 0.557998719 9.74404235 4.02708645 6.82180301 4.01376372"></polygon>
                    </g>
                    <g id="Group" transform="translate(14.777894, 13.092102)">
                        <g id="Path">
                            <path d="M10.276019,0.0307421947 C4.63722485,0.0307421947 0.0496184918,4.57661089 0.0496184918,10.1643199 C0.0496184918,15.752029 4.63712698,20.2978977 10.276019,20.2978977 L12.0130577,10.1643199 L10.276019,0.0307421947 Z" fill="#FFFF6E"></path>
                            <path d="M20.5024196,10.1643199 C20.5024196,4.57670786 15.9149111,0.0307421947 10.276019,0.0307421947 L10.276019,20.2978977 C15.9149111,20.2978977 20.5024196,15.751932 20.5024196,10.1643199 Z" fill="#FFEA2E"></path>
                        </g>
                        <g id="Path" transform="translate(6.459212, 4.751948)" fill="#FFCC00">
                            <path d="M3.55501325,7.53755943 C3.1167655,7.53755943 2.65943372,7.47103215 2.18292004,7.33768667 C1.70621062,7.20453515 1.27569436,7.02735537 0.89137125,6.80634129 L0.0150714946,8.77161125 C0.360932935,8.98496402 0.797223342,9.16398639 1.32374698,9.30867836 C1.85027062,9.45327335 2.40184818,9.54094194 2.97847965,9.57149018 L2.97847965,10.7826551 L3.81680707,10.7826551 L4.49316485,9.12791037 L3.81680707,7.53077093 C3.73626265,7.53532892 3.64896542,7.53755943 3.55501325,7.53755943 L3.55501325,7.53755943 Z"></path>
                            <path d="M3.13986208,4.14980837 C2.93238436,4.06980108 2.8286455,3.94983863 2.8286455,3.78992103 C2.8286455,3.46484899 3.15865251,3.29785196 3.81680707,3.28805713 L4.49316485,1.96168175 L3.81680707,0.0420886829 L2.97847965,0.0420886829 L2.97847965,1.28758397 C2.06352249,1.41724427 1.36211079,1.72175686 0.874048818,2.20170361 C0.385888981,2.68155339 0.141906929,3.25683004 0.141906929,3.92704868 C0.141906929,4.50601051 0.295655747,4.96510688 0.603055516,5.3038529 C0.910455285,5.64288985 1.27177969,5.8865969 1.68693086,6.03516801 C2.10208202,6.18373912 2.62087418,6.32280633 3.24360094,6.45227267 C3.46321414,6.49717373 3.6531737,6.54042616 3.8167092,6.58222391 L4.49306698,5.89707058 L3.8167092,4.33571621 C3.51860678,4.27054664 3.29253436,4.20857736 3.13986208,4.14980837 L3.13986208,4.14980837 Z"></path>
                        </g>
                        <g id="Path" transform="translate(10.276019, 4.751948)" fill="#FFAF00">
                            <path d="M0.061068913,3.28708734 C0.768156889,3.28708734 1.51771908,3.48521449 2.30955974,3.88127481 L3.12821592,1.92744832 C2.49002621,1.56950056 1.7098317,1.34868045 0.787436658,1.26469704 L0.787436658,0.0420886829 L5.68434189e-14,0.0420886829 L5.68434189e-14,3.28805713 C0.0203563043,3.28776619 0.0400275408,3.28708734 0.061068913,3.28708734 L0.061068913,3.28708734 Z"></path>
                            <path d="M3.00715463,5.52661259 C2.69574232,5.19155176 2.32854591,4.94959032 1.90595686,4.80101921 C1.48307421,4.6524481 0.964282052,4.52104219 0.349384647,4.40680148 C0.22323428,4.38265382 0.107262065,4.35889408 0,4.33552225 L0,6.58202995 C0.197005965,6.63236181 0.35486519,6.68056014 0.470445938,6.72623703 C0.681740462,6.81012346 0.787436658,6.93580764 0.787436658,7.10328956 C0.787436658,7.24807851 0.706794375,7.35659749 0.545314076,7.42894347 C0.424154918,7.48334843 0.242318315,7.51719393 0,7.53077093 L0,10.7825581 L0.787436658,10.7825581 L0.787436658,9.51427285 C1.64827345,9.36201655 2.31132135,9.04780611 2.77648247,8.57164151 C3.24154573,8.09567088 3.47407746,7.53755943 3.47407746,6.89769507 C3.47417523,6.31892719 3.31846908,5.86186737 3.00715463,5.52661259 Z"></path>
                        </g>
                    </g>
                    <g id="Group-3" transform="translate(20.424386, 38.152174)">
                        <g id="Group-2">
                            <g id="Group">
                                <path d="M0.0111568207,0.0141073458 C0.0118092663,0.0143725215 0.0125269565,0.0146376972 0.0131794022,0.0149028729 L0.0131794022,2.81887045 L4.63236413,3.87076931 L5.61103261,1.56432433 L4.63236413,0.014160381 L0.0111568207,0.014160381 L0.0111568207,0.0141073458 Z" id="Path" fill="#E5DEDD"></path>
                                <path d="M4.63236413,0.0141073458 L4.63236413,3.87076931 L9.25148361,2.81887045 L9.25148361,0.0149028729 C9.25213606,0.0146376972 9.25285375,0.0143725215 9.2535062,0.0141073458 L4.63236413,0.0141073458 Z" id="Path" fill="#DAD0CD"></path>
                            </g>
                            <g id="Group" transform="translate(0.000000, 2.567935)">
                                <path d="M2.27817765e-13,0.262345613 C2.27817765e-13,2.52982492 1.99896299,4.24287139 4.43976217,4.24287139 L4.63236413,4.24287139 L5.79038992,2.12595126 L4.62952741,1.30283453 L2.27817765e-13,0.262345613 Z" id="Path" fill-opacity="0.497131774" fill="#83A9C5"></path>
                                <path d="M5.79038992,2.12595126 C5.79038992,2.12599167 5.40438132,2.83161151 4.63236413,4.24281078 L4.82496609,4.24281078 C7.26576527,4.24281078 9.2535062,2.52988553 9.2535062,0.262345613 L4.62952741,1.30283453 C5.40343575,1.85153861 5.79038992,2.12591085 5.79038992,2.12595126 Z" id="Path" fill-opacity="0.502239948" fill="#7897B5"></path>
                            </g>
                        </g>
                    </g>
                    <g id="Group" transform="translate(23.585910, 0.000000)">
                        <polygon id="Path" fill="#FFFF6E" points="0 -3.20817672e-15 0 3.44399861 1.46800272 3.44399861 2.1443605 1.72204779 1.46800272 -3.55271368e-15"></polygon>
                        <polygon id="Path" fill="#FFEA2E" points="1.46800272 0 2.93600543 0 2.93600543 3.44399861 1.46800272 3.44399861"></polygon>
                    </g>
                </g>
            </g>
            <path d="M41.1525,27 L41.1525,17.475 L44.625,17.475 L44.625,16.2525 L36.21,16.2525 L36.21,17.475 L39.6975,17.475 L39.6975,27 L41.1525,27 Z M47.445,27.105 C48,27.105 48.50125,27.01375 48.94875,26.83125 C49.39625,26.64875 49.77625,26.3875 50.08875,26.0475 C50.40125,25.7075 50.64125,25.2975 50.80875,24.8175 C50.97625,24.3375 51.06,23.7975 51.06,23.1975 C51.06,22.6025 50.97625,22.06375 50.80875,21.58125 C50.64125,21.09875 50.40125,20.6875 50.08875,20.3475 C49.77625,20.0075 49.39625,19.745 48.94875,19.56 C48.50125,19.375 48,19.2825 47.445,19.2825 C46.89,19.2825 46.38875,19.375 45.94125,19.56 C45.49375,19.745 45.1125,20.0075 44.7975,20.3475 C44.4825,20.6875 44.24,21.09875 44.07,21.58125 C43.9,22.06375 43.815,22.6025 43.815,23.1975 C43.815,23.7975 43.9,24.3375 44.07,24.8175 C44.24,25.2975 44.4825,25.7075 44.7975,26.0475 C45.1125,26.3875 45.49375,26.64875 45.94125,26.83125 C46.38875,27.01375 46.89,27.105 47.445,27.105 Z M47.445,26.0625 C47.065,26.0625 46.735,25.9975 46.455,25.8675 C46.175,25.7375 45.94125,25.55125 45.75375,25.30875 C45.56625,25.06625 45.42625,24.7675 45.33375,24.4125 C45.24125,24.0575 45.195,23.655 45.195,23.205 C45.195,22.755 45.24125,22.35125 45.33375,21.99375 C45.42625,21.63625 45.56625,21.335 45.75375,21.09 C45.94125,20.845 46.175,20.6575 46.455,20.5275 C46.735,20.3975 47.065,20.3325 47.445,20.3325 C48.195,20.3325 48.755,20.585 49.125,21.09 C49.495,21.595 49.68,22.3 49.68,23.205 C49.68,24.105 49.495,24.80625 49.125,25.30875 C48.755,25.81125 48.195,26.0625 47.445,26.0625 Z M54.045,29.5725 L54.045,26.2125 C54.3,26.4975 54.59375,26.7175 54.92625,26.8725 C55.25875,27.0275 55.66,27.105 56.13,27.105 C56.64,27.105 57.09875,27.00375 57.50625,26.80125 C57.91375,26.59875 58.2575,26.32125 58.5375,25.96875 C58.8175,25.61625 59.0325,25.19875 59.1825,24.71625 C59.3325,24.23375 59.4075,23.7125 59.4075,23.1525 C59.4075,22.5225 59.34,21.965 59.205,21.48 C59.07,20.995 58.8775,20.58875 58.6275,20.26125 C58.3775,19.93375 58.075,19.68625 57.72,19.51875 C57.365,19.35125 56.97,19.2675 56.535,19.2675 C55.99,19.2675 55.50875,19.3875 55.09125,19.6275 C54.67375,19.8675 54.3025,20.185 53.9775,20.58 L53.9775,20.58 L53.865,19.68 C53.815,19.495 53.695,19.4025 53.505,19.4025 L53.505,19.4025 L52.71,19.4025 L52.71,29.5725 L54.045,29.5725 Z M55.83,26.07 C55.47,26.07 55.14375,26.0025 54.85125,25.8675 C54.55875,25.7325 54.29,25.5 54.045,25.17 L54.045,25.17 L54.045,21.495 C54.32,21.13 54.62125,20.8475 54.94875,20.6475 C55.27625,20.4475 55.6575,20.3475 56.0925,20.3475 C56.3975,20.3475 56.67,20.4 56.91,20.505 C57.15,20.61 57.3525,20.77625 57.5175,21.00375 C57.6825,21.23125 57.80875,21.5225 57.89625,21.8775 C57.98375,22.2325 58.0275,22.6575 58.0275,23.1525 C58.0275,24.0875 57.8375,24.8075 57.4575,25.3125 C57.0775,25.8175 56.535,26.07 55.83,26.07 Z M70.7025,27 L70.7025,25.98 L68.5875,25.98 L68.5875,16.23 L67.5,16.23 L64.305,18.9975 L64.725,19.575 C64.755,19.62 64.8,19.65875 64.86,19.69125 C64.92,19.72375 64.9875,19.74 65.0625,19.74 C65.1075,19.74 65.155,19.73125 65.205,19.71375 C65.255,19.69625 65.305,19.6675 65.355,19.6275 L65.355,19.6275 L67.275,17.985 C67.26,18.21 67.2525,18.4325 67.2525,18.6525 L67.2525,18.6525 L67.2525,25.98 L64.9425,25.98 L64.9425,27 L70.7025,27 Z M75.8325,27.1125 C76.3775,27.1125 76.88875,27.0025 77.36625,26.7825 C77.84375,26.5625 78.2575,26.2275 78.6075,25.7775 C78.9575,25.3275 79.23375,24.75875 79.43625,24.07125 C79.63875,23.38375 79.74,22.57 79.74,21.63 C79.74,20.69 79.63875,19.875 79.43625,19.185 C79.23375,18.495 78.9575,17.92375 78.6075,17.47125 C78.2575,17.01875 77.84375,16.6825 77.36625,16.4625 C76.88875,16.2425 76.3775,16.1325 75.8325,16.1325 C75.2825,16.1325 74.77125,16.2425 74.29875,16.4625 C73.82625,16.6825 73.415,17.01875 73.065,17.47125 C72.715,17.92375 72.44,18.495 72.24,19.185 C72.04,19.875 71.94,20.69 71.94,21.63 C71.94,22.57 72.04,23.38375 72.24,24.07125 C72.44,24.75875 72.715,25.3275 73.065,25.7775 C73.415,26.2275 73.82625,26.5625 74.29875,26.7825 C74.77125,27.0025 75.2825,27.1125 75.8325,27.1125 Z M75.8325,25.9875 C75.5025,25.9875 75.185,25.91375 74.88,25.76625 C74.575,25.61875 74.3075,25.375 74.0775,25.035 C73.8475,24.695 73.66375,24.2475 73.52625,23.6925 C73.38875,23.1375 73.32,22.45 73.32,21.63 C73.32,20.81 73.38875,20.12125 73.52625,19.56375 C73.66375,19.00625 73.8475,18.5575 74.0775,18.2175 C74.3075,17.8775 74.575,17.63375 74.88,17.48625 C75.185,17.33875 75.5025,17.265 75.8325,17.265 C76.1625,17.265 76.48,17.33875 76.785,17.48625 C77.09,17.63375 77.35875,17.8775 77.59125,18.2175 C77.82375,18.5575 78.00875,19.00625 78.14625,19.56375 C78.28375,20.12125 78.3525,20.81 78.3525,21.63 C78.3525,22.45 78.28375,23.1375 78.14625,23.6925 C78.00875,24.2475 77.82375,24.695 77.59125,25.035 C77.35875,25.375 77.09,25.61875 76.785,25.76625 C76.48,25.91375 76.1625,25.9875 75.8325,25.9875 Z M89.07,27.1125 C89.86,27.1125 90.58125,26.97875 91.23375,26.71125 C91.88625,26.44375 92.445,26.0675 92.91,25.5825 C93.375,25.0975 93.735,24.51875 93.99,23.84625 C94.245,23.17375 94.3725,22.435 94.3725,21.63 C94.3725,20.825 94.245,20.08625 93.99,19.41375 C93.735,18.74125 93.375,18.16125 92.91,17.67375 C92.445,17.18625 91.88625,16.8075 91.23375,16.5375 C90.58125,16.2675 89.86,16.1325 89.07,16.1325 C88.28,16.1325 87.56,16.2675 86.91,16.5375 C86.26,16.8075 85.7025,17.18625 85.2375,17.67375 C84.7725,18.16125 84.4125,18.74125 84.1575,19.41375 C83.9025,20.08625 83.775,20.825 83.775,21.63 C83.775,22.435 83.9025,23.17375 84.1575,23.84625 C84.4125,24.51875 84.7725,25.0975 85.2375,25.5825 C85.7025,26.0675 86.26,26.44375 86.91,26.71125 C87.56,26.97875 88.28,27.1125 89.07,27.1125 Z M89.07,25.8525 C88.495,25.8525 87.9725,25.75625 87.5025,25.56375 C87.0325,25.37125 86.63125,25.09375 86.29875,24.73125 C85.96625,24.36875 85.71,23.92625 85.53,23.40375 C85.35,22.88125 85.26,22.29 85.26,21.63 C85.26,20.97 85.35,20.3775 85.53,19.8525 C85.71,19.3275 85.96625,18.88375 86.29875,18.52125 C86.63125,18.15875 87.0325,17.88 87.5025,17.685 C87.9725,17.49 88.495,17.3925 89.07,17.3925 C89.65,17.3925 90.175,17.49 90.645,17.685 C91.115,17.88 91.515,18.15875 91.845,18.52125 C92.175,18.88375 92.43,19.3275 92.61,19.8525 C92.79,20.3775 92.88,20.97 92.88,21.63 C92.88,22.29 92.79,22.88125 92.61,23.40375 C92.43,23.92625 92.175,24.36875 91.845,24.73125 C91.515,25.09375 91.115,25.37125 90.645,25.56375 C90.175,25.75625 89.65,25.8525 89.07,25.8525 Z M97.485,27 L97.485,21.405 C97.775,21.08 98.09125,20.8225 98.43375,20.6325 C98.77625,20.4425 99.145,20.3475 99.54,20.3475 C100.08,20.3475 100.48125,20.50625 100.74375,20.82375 C101.00625,21.14125 101.1375,21.5875 101.1375,22.1625 L101.1375,22.1625 L101.1375,27 L102.4725,27 L102.4725,22.1625 C102.4725,21.7325 102.4175,21.34 102.3075,20.985 C102.1975,20.63 102.03625,20.32625 101.82375,20.07375 C101.61125,19.82125 101.34625,19.62625 101.02875,19.48875 C100.71125,19.35125 100.345,19.2825 99.93,19.2825 C99.395,19.2825 98.92375,19.395 98.51625,19.62 C98.10875,19.845 97.74,20.14 97.41,20.505 L97.41,20.505 L97.305,19.68 C97.255,19.495 97.135,19.4025 96.945,19.4025 L96.945,19.4025 L96.15,19.4025 L96.15,27 L97.485,27 Z M105.975,27 L105.975,15.9525 L104.64,15.9525 L104.64,27 L105.975,27 Z M109.155,17.9625 C109.285,17.9625 109.4075,17.9375 109.5225,17.8875 C109.6375,17.8375 109.73875,17.76875 109.82625,17.68125 C109.91375,17.59375 109.98375,17.49375 110.03625,17.38125 C110.08875,17.26875 110.115,17.1475 110.115,17.0175 C110.115,16.8875 110.08875,16.76375 110.03625,16.64625 C109.98375,16.52875 109.91375,16.42625 109.82625,16.33875 C109.73875,16.25125 109.6375,16.1825 109.5225,16.1325 C109.4075,16.0825 109.285,16.0575 109.155,16.0575 C109.025,16.0575 108.90375,16.0825 108.79125,16.1325 C108.67875,16.1825 108.57875,16.25125 108.49125,16.33875 C108.40375,16.42625 108.335,16.52875 108.285,16.64625 C108.235,16.76375 108.21,16.8875 108.21,17.0175 C108.21,17.1475 108.235,17.26875 108.285,17.38125 C108.335,17.49375 108.40375,17.59375 108.49125,17.68125 C108.57875,17.76875 108.67875,17.8375 108.79125,17.8875 C108.90375,17.9375 109.025,17.9625 109.155,17.9625 Z M109.815,27 L109.815,19.4025 L108.48,19.4025 L108.48,27 L109.815,27 Z M113.505,27 L113.505,21.405 C113.795,21.08 114.11125,20.8225 114.45375,20.6325 C114.79625,20.4425 115.165,20.3475 115.56,20.3475 C116.1,20.3475 116.50125,20.50625 116.76375,20.82375 C117.02625,21.14125 117.1575,21.5875 117.1575,22.1625 L117.1575,22.1625 L117.1575,27 L118.4925,27 L118.4925,22.1625 C118.4925,21.7325 118.4375,21.34 118.3275,20.985 C118.2175,20.63 118.05625,20.32625 117.84375,20.07375 C117.63125,19.82125 117.36625,19.62625 117.04875,19.48875 C116.73125,19.35125 116.365,19.2825 115.95,19.2825 C115.415,19.2825 114.94375,19.395 114.53625,19.62 C114.12875,19.845 113.76,20.14 113.43,20.505 L113.43,20.505 L113.325,19.68 C113.275,19.495 113.155,19.4025 112.965,19.4025 L112.965,19.4025 L112.17,19.4025 L112.17,27 L113.505,27 Z M123.5925,27.105 C123.8675,27.105 124.145,27.08125 124.425,27.03375 C124.705,26.98625 124.97625,26.915 125.23875,26.82 C125.50125,26.725 125.7475,26.60375 125.9775,26.45625 C126.2075,26.30875 126.405,26.135 126.57,25.935 L126.57,25.935 L126.195,25.4475 C126.135,25.3625 126.05,25.32 125.94,25.32 C125.855,25.32 125.75375,25.35875 125.63625,25.43625 C125.51875,25.51375 125.3725,25.5975 125.1975,25.6875 C125.0225,25.7775 124.81375,25.86125 124.57125,25.93875 C124.32875,26.01625 124.04,26.055 123.705,26.055 C123.345,26.055 123.02,25.99625 122.73,25.87875 C122.44,25.76125 122.19,25.58375 121.98,25.34625 C121.77,25.10875 121.605,24.8125 121.485,24.4575 C121.365,24.1025 121.3,23.685 121.29,23.205 L121.29,23.205 L126.345,23.205 C126.47,23.205 126.555,23.17 126.6,23.1 C126.645,23.03 126.6675,22.89 126.6675,22.68 C126.6675,22.14 126.58875,21.65875 126.43125,21.23625 C126.27375,20.81375 126.055,20.45875 125.775,20.17125 C125.495,19.88375 125.1625,19.66375 124.7775,19.51125 C124.3925,19.35875 123.9725,19.2825 123.5175,19.2825 C122.9675,19.2825 122.4725,19.37875 122.0325,19.57125 C121.5925,19.76375 121.22,20.02875 120.915,20.36625 C120.61,20.70375 120.37625,21.1025 120.21375,21.5625 C120.05125,22.0225 119.97,22.5175 119.97,23.0475 C119.97,23.7025 120.06,24.2825 120.24,24.7875 C120.42,25.2925 120.67125,25.71625 120.99375,26.05875 C121.31625,26.40125 121.69875,26.66125 122.14125,26.83875 C122.58375,27.01625 123.0675,27.105 123.5925,27.105 Z M125.4675,22.3725 L121.335,22.3725 C121.425,21.7125 121.655,21.19625 122.025,20.82375 C122.395,20.45125 122.9025,20.265 123.5475,20.265 C123.8525,20.265 124.12375,20.31625 124.36125,20.41875 C124.59875,20.52125 124.8,20.66625 124.965,20.85375 C125.13,21.04125 125.255,21.26375 125.34,21.52125 C125.425,21.77875 125.4675,22.0625 125.4675,22.3725 L125.4675,22.3725 Z M41.19,43 C41.82,43 42.38,42.92 42.87,42.76 C43.36,42.6 43.7725,42.37875 44.1075,42.09625 C44.4425,41.81375 44.6975,41.4775 44.8725,41.0875 C45.0475,40.6975 45.135,40.2725 45.135,39.8125 C45.135,38.5375 44.39,37.7325 42.9,37.3975 C43.235,37.2825 43.52375,37.1425 43.76625,36.9775 C44.00875,36.8125 44.20875,36.62875 44.36625,36.42625 C44.52375,36.22375 44.64,36.00625 44.715,35.77375 C44.79,35.54125 44.8275,35.2975 44.8275,35.0425 C44.8275,34.5975 44.7525,34.1975 44.6025,33.8425 C44.4525,33.4875 44.21625,33.185 43.89375,32.935 C43.57125,32.685 43.15875,32.4925 42.65625,32.3575 C42.15375,32.2225 41.5475,32.155 40.8375,32.155 L40.8375,32.155 L37.095,32.155 L37.095,43 L41.19,43 Z M40.725,36.85 L39.1125,36.85 L39.1125,33.715 L40.8375,33.715 C41.5175,33.715 42.0175,33.835 42.3375,34.075 C42.6575,34.315 42.8175,34.7175 42.8175,35.2825 C42.8175,35.8275 42.64,36.225 42.285,36.475 C41.93,36.725 41.41,36.85 40.725,36.85 L40.725,36.85 Z M41.16,41.425 L39.1125,41.425 L39.1125,38.245 L41.1525,38.245 C41.5075,38.245 41.81,38.28 42.06,38.35 C42.31,38.42 42.515,38.52125 42.675,38.65375 C42.835,38.78625 42.9525,38.94625 43.0275,39.13375 C43.1025,39.32125 43.14,39.5325 43.14,39.7675 C43.14,39.9925 43.10625,40.205 43.03875,40.405 C42.97125,40.605 42.86125,40.78 42.70875,40.93 C42.55625,41.08 42.35375,41.2 42.10125,41.29 C41.84875,41.38 41.535,41.425 41.16,41.425 L41.16,41.425 Z M48.9525,43 L48.9525,38.7625 L49.815,38.7625 C50.015,38.7625 50.16625,38.79 50.26875,38.845 C50.37125,38.9 50.465,38.9925 50.55,39.1225 L50.55,39.1225 L52.83,42.595 C52.915,42.725 53.01875,42.825 53.14125,42.895 C53.26375,42.965 53.4125,43 53.5875,43 L53.5875,43 L55.4025,43 L52.6875,38.995 C52.5025,38.725 52.2825,38.5175 52.0275,38.3725 C52.4075,38.2525 52.74625,38.0925 53.04375,37.8925 C53.34125,37.6925 53.59125,37.46 53.79375,37.195 C53.99625,36.93 54.15125,36.635 54.25875,36.31 C54.36625,35.985 54.42,35.64 54.42,35.275 C54.42,34.815 54.34125,34.39375 54.18375,34.01125 C54.02625,33.62875 53.77875,33.3 53.44125,33.025 C53.10375,32.75 52.67125,32.53625 52.14375,32.38375 C51.61625,32.23125 50.9825,32.155 50.2425,32.155 L50.2425,32.155 L46.935,32.155 L46.935,43 L48.9525,43 Z M50.2125,37.315 L48.9525,37.315 L48.9525,33.715 L50.2425,33.715 C50.9875,33.715 51.54125,33.8625 51.90375,34.1575 C52.26625,34.4525 52.4475,34.875 52.4475,35.425 C52.4475,35.7 52.4025,35.9525 52.3125,36.1825 C52.2225,36.4125 52.08625,36.61125 51.90375,36.77875 C51.72125,36.94625 51.48875,37.0775 51.20625,37.1725 C50.92375,37.2675 50.5925,37.315 50.2125,37.315 L50.2125,37.315 Z M61.245,43.12 C62.065,43.12 62.8125,42.98125 63.4875,42.70375 C64.1625,42.42625 64.74,42.04 65.22,41.545 C65.7,41.05 66.0725,40.46375 66.3375,39.78625 C66.6025,39.10875 66.735,38.3725 66.735,37.5775 C66.735,36.7825 66.6025,36.04625 66.3375,35.36875 C66.0725,34.69125 65.7,34.10625 65.22,33.61375 C64.74,33.12125 64.1625,32.735 63.4875,32.455 C62.8125,32.175 62.065,32.035 61.245,32.035 C60.425,32.035 59.67625,32.17375 58.99875,32.45125 C58.32125,32.72875 57.74125,33.115 57.25875,33.61 C56.77625,34.105 56.4025,34.69125 56.1375,35.36875 C55.8725,36.04625 55.74,36.7825 55.74,37.5775 C55.74,38.3725 55.8725,39.10875 56.1375,39.78625 C56.4025,40.46375 56.77625,41.05 57.25875,41.545 C57.74125,42.04 58.32125,42.42625 58.99875,42.70375 C59.67625,42.98125 60.425,43.12 61.245,43.12 Z M61.245,41.395 C60.715,41.395 60.2375,41.3075 59.8125,41.1325 C59.3875,40.9575 59.02625,40.70625 58.72875,40.37875 C58.43125,40.05125 58.2025,39.65125 58.0425,39.17875 C57.8825,38.70625 57.8025,38.1725 57.8025,37.5775 C57.8025,36.9825 57.8825,36.44875 58.0425,35.97625 C58.2025,35.50375 58.43125,35.1025 58.72875,34.7725 C59.02625,34.4425 59.3875,34.19 59.8125,34.015 C60.2375,33.84 60.715,33.7525 61.245,33.7525 C61.775,33.7525 62.25125,33.84 62.67375,34.015 C63.09625,34.19 63.455,34.4425 63.75,34.7725 C64.045,35.1025 64.27125,35.50375 64.42875,35.97625 C64.58625,36.44875 64.665,36.9825 64.665,37.5775 C64.665,38.1725 64.58625,38.70625 64.42875,39.17875 C64.27125,39.65125 64.045,40.05125 63.75,40.37875 C63.455,40.70625 63.09625,40.9575 62.67375,41.1325 C62.25125,41.3075 61.775,41.395 61.245,41.395 Z M70.41,43 L70.41,38.23 L71.0475,38.23 C71.2775,38.23 71.455,38.25875 71.58,38.31625 C71.705,38.37375 71.8175,38.4675 71.9175,38.5975 L71.9175,38.5975 L74.985,42.6025 C75.065,42.7325 75.16375,42.83125 75.28125,42.89875 C75.39875,42.96625 75.5775,43 75.8175,43 L75.8175,43 L77.6025,43 L73.8375,37.9225 C73.7125,37.7525 73.58375,37.6125 73.45125,37.5025 C73.31875,37.3925 73.17,37.3075 73.005,37.2475 C73.125,37.1875 73.2375,37.11 73.3425,37.015 C73.4475,36.92 73.5575,36.8025 73.6725,36.6625 L73.6725,36.6625 L77.325,32.155 L75.585,32.155 C75.375,32.155 75.20125,32.18625 75.06375,32.24875 C74.92625,32.31125 74.795,32.4225 74.67,32.5825 L74.67,32.5825 L71.6775,36.37 C71.5875,36.485 71.48,36.56875 71.355,36.62125 C71.23,36.67375 71.0725,36.7 70.8825,36.7 L70.8825,36.7 L70.41,36.7 L70.41,32.1475 L68.3925,32.1475 L68.3925,43 L70.41,43 Z M85.635,43 L85.635,41.3875 L80.8275,41.3875 L80.8275,38.32 L84.615,38.32 L84.615,36.7675 L80.8275,36.7675 L80.8275,33.76 L85.635,33.76 L85.635,32.155 L78.795,32.155 L78.795,43 L85.635,43 Z M89.4675,43 L89.4675,38.7625 L90.33,38.7625 C90.53,38.7625 90.68125,38.79 90.78375,38.845 C90.88625,38.9 90.98,38.9925 91.065,39.1225 L91.065,39.1225 L93.345,42.595 C93.43,42.725 93.53375,42.825 93.65625,42.895 C93.77875,42.965 93.9275,43 94.1025,43 L94.1025,43 L95.9175,43 L93.2025,38.995 C93.0175,38.725 92.7975,38.5175 92.5425,38.3725 C92.9225,38.2525 93.26125,38.0925 93.55875,37.8925 C93.85625,37.6925 94.10625,37.46 94.30875,37.195 C94.51125,36.93 94.66625,36.635 94.77375,36.31 C94.88125,35.985 94.935,35.64 94.935,35.275 C94.935,34.815 94.85625,34.39375 94.69875,34.01125 C94.54125,33.62875 94.29375,33.3 93.95625,33.025 C93.61875,32.75 93.18625,32.53625 92.65875,32.38375 C92.13125,32.23125 91.4975,32.155 90.7575,32.155 L90.7575,32.155 L87.45,32.155 L87.45,43 L89.4675,43 Z M90.7275,37.315 L89.4675,37.315 L89.4675,33.715 L90.7575,33.715 C91.5025,33.715 92.05625,33.8625 92.41875,34.1575 C92.78125,34.4525 92.9625,34.875 92.9625,35.425 C92.9625,35.7 92.9175,35.9525 92.8275,36.1825 C92.7375,36.4125 92.60125,36.61125 92.41875,36.77875 C92.23625,36.94625 92.00375,37.0775 91.72125,37.1725 C91.43875,37.2675 91.1075,37.315 90.7275,37.315 L90.7275,37.315 Z M99.945,43.12 C100.545,43.12 101.0775,43.02875 101.5425,42.84625 C102.0075,42.66375 102.40125,42.41375 102.72375,42.09625 C103.04625,41.77875 103.29125,41.40625 103.45875,40.97875 C103.62625,40.55125 103.71,40.0925 103.71,39.6025 C103.71,39.1525 103.63875,38.77 103.49625,38.455 C103.35375,38.14 103.165,37.87375 102.93,37.65625 C102.695,37.43875 102.4275,37.25875 102.1275,37.11625 C101.8275,36.97375 101.52125,36.84875 101.20875,36.74125 C100.89625,36.63375 100.59,36.5325 100.29,36.4375 C99.99,36.3425 99.7225,36.235 99.4875,36.115 C99.2525,35.995 99.06375,35.85 98.92125,35.68 C98.77875,35.51 98.7075,35.2975 98.7075,35.0425 C98.7075,34.8425 98.7425,34.65875 98.8125,34.49125 C98.8825,34.32375 98.98875,34.18 99.13125,34.06 C99.27375,33.94 99.44875,33.84625 99.65625,33.77875 C99.86375,33.71125 100.1075,33.6775 100.3875,33.6775 C100.6975,33.6775 100.96625,33.71625 101.19375,33.79375 C101.42125,33.87125 101.62,33.9575 101.79,34.0525 C101.96,34.1475 102.1075,34.23375 102.2325,34.31125 C102.3575,34.38875 102.47,34.4275 102.57,34.4275 C102.67,34.4275 102.75625,34.405 102.82875,34.36 C102.90125,34.315 102.965,34.2375 103.02,34.1275 L103.02,34.1275 L103.515,33.175 C103.135,32.815 102.675,32.535 102.135,32.335 C101.595,32.135 101.005,32.035 100.365,32.035 C99.8,32.035 99.2975,32.1225 98.8575,32.2975 C98.4175,32.4725 98.04625,32.705 97.74375,32.995 C97.44125,33.285 97.21125,33.6175 97.05375,33.9925 C96.89625,34.3675 96.8175,34.7525 96.8175,35.1475 C96.8175,35.6425 96.88875,36.05875 97.03125,36.39625 C97.17375,36.73375 97.3625,37.015 97.5975,37.24 C97.8325,37.465 98.1,37.6475 98.4,37.7875 C98.7,37.9275 99.005,38.0475 99.315,38.1475 C99.625,38.2475 99.93,38.34 100.23,38.425 C100.53,38.51 100.7975,38.61375 101.0325,38.73625 C101.2675,38.85875 101.45625,39.01 101.59875,39.19 C101.74125,39.37 101.8125,39.6025 101.8125,39.8875 C101.8125,40.3975 101.655,40.78875 101.34,41.06125 C101.025,41.33375 100.58,41.47 100.005,41.47 C99.63,41.47 99.30875,41.41875 99.04125,41.31625 C98.77375,41.21375 98.54125,41.1 98.34375,40.975 C98.14625,40.85 97.975,40.73625 97.83,40.63375 C97.685,40.53125 97.55,40.48 97.425,40.48 C97.33,40.48 97.24375,40.50375 97.16625,40.55125 C97.08875,40.59875 97.0225,40.6575 96.9675,40.7275 L96.9675,40.7275 L96.3825,41.695 C96.5925,41.91 96.83125,42.105 97.09875,42.28 C97.36625,42.455 97.65375,42.605 97.96125,42.73 C98.26875,42.855 98.59,42.95125 98.925,43.01875 C99.26,43.08625 99.6,43.12 99.945,43.12 Z" id="Top10OnlineBROKERS" fill="#FFFFFF"></path>
        </g>
    </g>
</svg>