<?xml version="1.0" encoding="UTF-8"?>
<svg width="13px" height="13px" viewBox="0 0 13 13" version="1.1" xmlns="http://www.w3.org/2000/svg" xmlns:xlink="http://www.w3.org/1999/xlink">
    <!-- Generator: sketchtool 60.1 (101010) - https://sketch.com -->
    <title>3A56655C-B2EE-4625-BA3E-67AEE66FFA32</title>
    <desc>Created with sketchtool.</desc>
    <g id="Page-1" stroke="none" stroke-width="1" fill="none" fill-rule="evenodd">
        <g id="Landing-Page" transform="translate(-832.000000, -486.000000)" fill-rule="nonzero">
            <g id="Group" transform="translate(119.000000, 454.000000)">
                <g id="top-2" transform="translate(713.000000, 32.000000)">
                    <g id="top">
                        <path d="M8.36870233,4.95825 C8.26534901,4.58404688 8.49021875,4.19746875 8.87150096,4.09584375 C10.1871582,3.74428125 11.1675845,2.68617188 11.4329279,1.40625 L9.36033163,1.40625 C8.96508147,1.40625 8.64524872,1.09176563 8.64524872,0.703125 C8.64524872,0.314484375 8.96508147,0 9.36033163,0 L12.2206633,0 C12.6159134,0 12.9357462,0.314484375 12.9357462,0.703125 C12.9357462,2.91960938 11.4190077,4.87242188 9.24582302,5.45264063 C8.87755533,5.55323438 8.47501132,5.34257813 8.36870233,4.95825 L8.36870233,4.95825 Z" id="Path" fill="#FFAA33"></path>
                        <path d="M7.21508291,6.328125 L7.21508291,10.546875 C7.21508291,10.9405781 6.9004941,11.25 6.5,11.25 C6.0995059,11.25 5.78491709,10.9405781 5.78491709,10.546875 L5.78491709,6.328125 C5.78491709,5.93432812 6.0995059,5.625 6.5,5.625 C6.9004941,5.625 7.21508291,5.93432812 7.21508291,6.328125 Z" id="Path" fill="#FFD24D"></path>
                        <path d="M7.21508291,6.328125 L7.21508291,10.546875 C7.21508291,10.9405781 6.9004941,11.25 6.5,11.25 L6.5,5.625 C6.9004941,5.625 7.21508291,5.93432812 7.21508291,6.328125 Z" id="Path" fill="#FFAA33"></path>
                        <path d="M3.75417698,5.45264063 C1.58099235,4.87242188 0.0642538265,2.91960938 0.0642538265,0.703125 C0.0642538265,0.314484375 0.384086575,0 0.779336735,0 L3.63966837,0 C4.03491853,0 4.35475128,0.314484375 4.35475128,0.703125 C4.35475128,1.09176563 4.03491853,1.40625 3.63966837,1.40625 L1.56702439,1.40625 C1.83236783,2.68617188 2.81284184,3.74428125 4.12845137,4.09584375 C4.50973358,4.19746875 4.73460332,4.58404688 4.63125,4.95825 C4.52494101,5.34271875 4.12225399,5.5531875 3.75417698,5.45264063 Z" id="Path" fill="#FFD24D"></path>
                        <path d="M9.36033163,0 L3.63966837,0 C3.23917427,0 2.92458546,0.309328125 2.92458546,0.703125 L2.92458546,3.515625 C2.92458546,5.45625 4.52637117,7.03125 6.5,7.03125 C8.47362883,7.03125 10.0754145,5.45625 10.0754145,3.515625 L10.0754145,0.703125 C10.0754145,0.309328125 9.76082573,0 9.36033163,0 Z" id="Path" fill="#FFEA80"></path>
                        <path d="M10.0754145,0.703125 L10.0754145,3.515625 C10.0754145,5.45625 8.47362883,7.03125 6.5,7.03125 L6.5,0 L9.36033163,0 C9.76082573,0 10.0754145,0.309328125 10.0754145,0.703125 Z" id="Path" fill="#FFD24D"></path>
                        <path d="M8.64524872,9.84375 L4.35475128,9.84375 C3.56816008,9.84375 2.92458546,10.4765625 2.92458546,11.25 L2.92458546,11.953125 C2.92458546,12.3468281 3.23917427,12.65625 3.63966837,12.65625 L9.36033163,12.65625 C9.76082573,12.65625 10.0754145,12.3468281 10.0754145,11.953125 L10.0754145,11.25 C10.0754145,10.4765625 9.43183992,9.84375 8.64524872,9.84375 Z" id="Path" fill="#FFEA80"></path>
                        <path d="M10.0754145,11.25 L10.0754145,11.953125 C10.0754145,12.3468281 9.76082573,12.65625 9.36033163,12.65625 L6.5,12.65625 L6.5,9.84375 L8.64524872,9.84375 C9.43183992,9.84375 10.0754145,10.4765625 10.0754145,11.25 Z" id="Path" fill="#FFD24D"></path>
                    </g>
                </g>
            </g>
        </g>
    </g>
</svg>